<?xml version="1.0" encoding="UTF-8" standalone="no"?>
<!-- Created with Inkscape (http://www.inkscape.org/) -->

<svg
   width="305.37167mm"
   height="85.857063mm"
   viewBox="0 0 305.37168 85.857063"
   version="1.1"
   id="svg6631"
   inkscape:version="1.1.1 (3bf5ae0d25, 2021-09-20)"
   sodipodi:docname="fig2.svg"
   xmlns:inkscape="http://www.inkscape.org/namespaces/inkscape"
   xmlns:sodipodi="http://sodipodi.sourceforge.net/DTD/sodipodi-0.dtd"
   xmlns:xlink="http://www.w3.org/1999/xlink"
   xmlns="http://www.w3.org/2000/svg"
   xmlns:svg="http://www.w3.org/2000/svg">
  <sodipodi:namedview
     id="namedview6633"
     pagecolor="#ffffff"
     bordercolor="#666666"
     borderopacity="1.0"
     inkscape:pageshadow="2"
     inkscape:pageopacity="0.0"
     inkscape:pagecheckerboard="0"
     inkscape:document-units="mm"
     showgrid="false"
     inkscape:zoom="1.1326108"
     inkscape:cx="338.15675"
     inkscape:cy="93.147617"
     inkscape:window-width="2560"
     inkscape:window-height="1057"
     inkscape:window-x="1912"
     inkscape:window-y="-8"
     inkscape:window-maximized="1"
     inkscape:current-layer="g25042" />
  <defs
     id="defs6628">
    <path
       d="m 736,-86 c 294,10 346,-88 438,-289 l 33,7 L 1091,0 H 41 v -37 c 81,4 144,-6 174,-56 14,-21 21,-71 21,-148 v -875 c 7,-178 -41,-204 -195,-203 v -37 h 614 v 37 c -184,7 -227,24 -227,226 v 852 c 6,159 26,155 209,155 h 99"
       id="i" />
    <path
       d="M 501,28 C 254,34 61,-203 69,-449 c 9,-268 170,-487 443,-494 249,-7 449,219 441,468 -9,274 -167,496 -452,503 z m -20,-906 c -288,0 -259,495 -147,690 55,96 123,145 210,145 65,0 118,-27 160,-80 42,-53 63,-145 63,-275 0,-163 -35,-291 -105,-384 -47,-64 -108,-96 -181,-96"
       id="j" />
    <path
       d="m 577,-905 c 31,0 31,-12 46,-38 h 33 v 312 h -33 c -25,-98 -57,-165 -97,-200 -40,-35 -91,-53 -152,-53 -80,0 -156,51 -156,119 0,112 57,134 158,183 l 146,71 c 135,66 203,153 203,261 0,160 -154,278 -306,278 -67,0 -168,-40 -246,-40 -15,0 -27,9 -36,26 h -33 v -327 h 33 c 27,157 125,274 284,282 84,3 157,-59 156,-138 0,-46 -17,-85 -49,-116 -32,-31 -96,-71 -193,-119 -97,-48 -160,-91 -190,-130 -30,-38 -45,-86 -45,-144 -2,-151 122,-265 278,-265 45,0 153,38 199,38"
       id="k" />
    <g
       id="a">
      <use
         width="100%"
         height="100%"
         xlink:href="#i"
         transform="scale(0.0119358)"
         id="use6695"
         x="0"
         y="0" />
      <use
         width="100%"
         height="100%"
         xlink:href="#j"
         transform="matrix(0.0119358,0,0,0.0119358,14.9316,0)"
         id="use6697"
         x="0"
         y="0" />
      <use
         width="100%"
         height="100%"
         xlink:href="#k"
         transform="matrix(0.0119358,0,0,0.0119358,27.1539,0)"
         id="use6699"
         x="0"
         y="0" />
      <use
         width="100%"
         height="100%"
         xlink:href="#k"
         transform="matrix(0.0119358,0,0,0.0119358,36.6667,0)"
         id="use6701"
         x="0"
         y="0" />
    </g>
    <path
       d="m 318,226 c -3,148 19,171 155,175 v 37 H -7 v -37 c 68,2 128,-7 149,-57 7,-16 10,-57 10,-124 v -866 c -3,-93 3,-115 -34,-149 -32,-18 -67,-14 -108,2 l -12,-32 282,-114 h 38 v 214 c 47,-81 94,-137 142,-169 48,-32 98,-49 151,-49 221,3 343,221 343,452 C 954,-226 798,31 536,28 428,27 382,5 318,-53 Z M 532,-798 c -117,0 -121,40 -214,132 3,149 -13,362 9,488 14,79 102,146 206,146 67,0 119,-28 162,-78 114,-131 101,-488 -11,-610 -45,-50 -93,-78 -152,-78"
       id="l" />
    <path
       d="m 76,-446 c 0,-285 162,-495 423,-498 208,-2 358,157 352,373 H 218 c -11,236 130,436 334,436 154,0 216,-85 268,-219 l 31,20 C 827,-163 678,33 476,28 240,22 76,-185 76,-446 Z m 142,-183 h 424 c -5,-121 -28,-166 -96,-212 -84,-58 -184,-36 -252,33 -44,43 -69,102 -76,179"
       id="m" />
    <path
       d="m 23,-36 c 118,-6 149,-31 144,-170 -5,-152 6,-423 -7,-546 -7,-65 -78,-69 -137,-43 l -10,-36 277,-112 h 42 v 206 c 77,-137 155,-206 236,-206 66,0 127,50 127,111 0,49 -40,94 -88,93 -38,10 -113,-69 -143,-69 -12,0 -25,7 -39,20 -30,27 -61,72 -93,135 v 439 c -2,125 37,177 160,178 V 0 H 23 v -36"
       id="n" />
    <g
       id="b">
      <use
         width="100%"
         height="100%"
         xlink:href="#l"
         transform="scale(0.0119358)"
         id="use6707"
         x="0"
         y="0" />
      <use
         width="100%"
         height="100%"
         xlink:href="#m"
         transform="matrix(0.0119358,0,0,0.0119358,12.2222,0)"
         id="use6709"
         x="0"
         y="0" />
      <use
         width="100%"
         height="100%"
         xlink:href="#n"
         transform="matrix(0.0119358,0,0,0.0119358,23.0718,0)"
         id="use6711"
         x="0"
         y="0" />
    </g>
    <path
       d="m 78,-36 c 124,1 135,-44 135,-171 v -832 c 0,-103 -4,-167 -7,-191 -9,-68 -68,-72 -128,-45 l -17,-35 273,-112 h 45 v 1215 c 0,136 18,170 148,171 V 0 H 78 v -36"
       id="o" />
    <path
       d="M 691,18 C 611,18 583,-38 583,-132 489,-59 430,-17 406,-6 241,73 62,-39 73,-217 c 8,-136 70,-179 173,-244 66,-42 180,-89 337,-146 4,-171 -23,-271 -170,-275 -74,-2 -138,48 -138,112 0,82 -7,154 -83,154 -52,0 -87,-42 -84,-97 8,-140 160,-236 335,-230 142,5 253,33 287,138 46,143 3,474 23,647 4,32 15,47 43,50 52,-8 50,-30 109,-80 v 56 C 830,-32 759,18 691,18 Z M 275,-369 c -78,100 -12,274 108,272 51,0 117,-33 200,-100 v -349 c -101,40 -166,68 -195,85 -53,29 -89,61 -113,92"
       id="p" />
    <path
       d="M 481,28 C 344,28 246,-24 150,-88 v -949 c 0,-104 -5,-168 -8,-192 -10,-70 -71,-73 -133,-46 l -14,-35 275,-112 h 45 v 664 c 89,-123 184,-185 287,-185 211,0 351,207 351,450 0,163 -54,294 -162,393 C 698,-15 595,28 481,28 Z m 42,-829 c -100,0 -138,41 -208,107 v 548 c 57,55 120,101 217,101 61,0 115,-36 170,-100 98,-114 105,-447 0,-561 -55,-60 -112,-95 -179,-95"
       id="q" />
    <g
       id="c">
      <use
         width="100%"
         height="100%"
         xlink:href="#o"
         transform="scale(0.0119358)"
         id="use6717"
         x="0"
         y="0" />
      <use
         width="100%"
         height="100%"
         xlink:href="#p"
         transform="matrix(0.0119358,0,0,0.0119358,6.79145,0)"
         id="use6719"
         x="0"
         y="0" />
      <use
         width="100%"
         height="100%"
         xlink:href="#q"
         transform="matrix(0.0119358,0,0,0.0119358,17.6411,0)"
         id="use6721"
         x="0"
         y="0" />
      <use
         width="100%"
         height="100%"
         xlink:href="#m"
         transform="matrix(0.0119358,0,0,0.0119358,29.8633,0)"
         id="use6723"
         x="0"
         y="0" />
      <use
         width="100%"
         height="100%"
         xlink:href="#o"
         transform="matrix(0.0119358,0,0,0.0119358,40.7129,0)"
         id="use6725"
         x="0"
         y="0" />
    </g>
    <path
       d="M 183,-205 C 55,-420 41,-825 144,-1070 c 47,-112 108,-195 186,-249 171,-119 340,-68 466,94 103,132 155,309 155,534 0,285 -86,531 -241,641 C 500,99 314,16 183,-205 Z m 113,-791 c -40,264 -35,610 43,808 57,144 167,195 282,100 39,-32 69,-86 88,-162 64,-263 90,-889 -95,-1035 -69,-54 -164,-41 -220,28 -46,57 -80,142 -98,261"
       id="r" />
    <use
       width="100%"
       height="100%"
       xlink:href="#r"
       id="d"
       transform="scale(0.0130208)"
       x="0"
       y="0" />
    <path
       d="m 264,-37 c 167,-9 174,-17 174,-202 v -732 c 0,-99 -3,-162 -10,-190 -21,-82 -97,-71 -173,-31 l -15,-31 330,-161 h 33 v 1145 c -4,178 9,196 171,202 V 0 H 264 v -37"
       id="s" />
    <use
       width="100%"
       height="100%"
       xlink:href="#s"
       id="e"
       transform="scale(0.0130208)"
       x="0"
       y="0" />
    <path
       d="m 145,-83 c 0,-60 51,-111 111,-111 60,0 111,51 111,111 0,59 -52,111 -111,111 -59,0 -111,-52 -111,-111"
       id="t" />
    <path
       d="m 291,-131 c 192,145 454,-35 446,-252 -7,-194 -141,-331 -297,-394 -73,-29 -172,-47 -297,-52 l 260,-527 h 486 l -78,170 H 403 l -89,182 c 177,26 315,93 420,197 133,132 175,333 90,518 C 743,-112 571,24 331,24 250,24 191,10 154,-18 117,-46 98,-76 98,-109 c -1,-56 70,-88 126,-63 13,5 36,18 67,41"
       id="u" />
    <g
       id="f">
      <use
         width="100%"
         height="100%"
         xlink:href="#r"
         transform="scale(0.0130208)"
         id="use6734"
         x="0"
         y="0" />
      <use
         width="100%"
         height="100%"
         xlink:href="#t"
         transform="matrix(0.0130208,0,0,0.0130208,13.3333,0)"
         id="use6736"
         x="0"
         y="0" />
      <use
         width="100%"
         height="100%"
         xlink:href="#u"
         transform="matrix(0.0130208,0,0,0.0130208,20,0)"
         id="use6738"
         x="0"
         y="0" />
    </g>
    <path
       d="M 341,15 C 212,15 165,-74 165,-230 V -846 H 20 v -33 c 86,-36 165,-117 215,-199 15,-25 37,-72 64,-139 h 31 v 301 h 214 v 70 H 330 v 594 c 0,97 17,151 91,151 54,0 95,-36 112,-81 h 39 C 536,-75 459,15 341,15"
       id="v" />
    <path
       d="m 244,-8 c -53,-36 -95,-47 -95,-111 0,-23 10,-51 29,-82 19,-31 62,-76 131,-133 -99,-46 -172,-143 -174,-277 -2,-186 168,-332 365,-332 87,0 163,21 227,64 h 194 c 58,0 66,-3 66,43 0,50 -8,47 -66,47 H 802 c 37,48 56,109 56,184 1,229 -252,368 -500,290 -43,39 -67,62 -75,115 7,37 32,50 81,56 73,9 384,11 407,21 112,13 203,88 204,207 0,75 -35,146 -106,212 C 765,393 629,442 462,442 333,442 226,412 136,355 15,279 64,188 142,100 147,94 181,58 244,-8 Z m 265,-336 c 120,0 174,-95 174,-236 0,-106 -23,-189 -69,-249 -34,-44 -78,-66 -131,-66 -117,0 -174,101 -174,240 0,105 23,187 68,245 35,44 79,66 132,66 z M 299,0 c -63,66 -150,185 -37,260 111,73 450,84 554,-2 55,-45 86,-87 86,-135 C 902,88 885,62 851,49 751,10 392,24 299,0"
       id="w" />
    <g
       id="g">
      <use
         width="100%"
         height="100%"
         xlink:href="#v"
         transform="scale(0.0119358)"
         id="use6743"
         x="0"
         y="0" />
      <use
         width="100%"
         height="100%"
         xlink:href="#p"
         transform="matrix(0.0119358,0,0,0.0119358,6.79145,0)"
         id="use6745"
         x="0"
         y="0" />
      <use
         width="100%"
         height="100%"
         xlink:href="#n"
         transform="matrix(0.0119358,0,0,0.0119358,17.6411,0)"
         id="use6747"
         x="0"
         y="0" />
      <use
         width="100%"
         height="100%"
         xlink:href="#w"
         transform="matrix(0.0119358,0,0,0.0119358,25.3396,0)"
         id="use6749"
         x="0"
         y="0" />
      <use
         width="100%"
         height="100%"
         xlink:href="#m"
         transform="matrix(0.0119358,0,0,0.0119358,37.5618,0)"
         id="use6751"
         x="0"
         y="0" />
      <use
         width="100%"
         height="100%"
         xlink:href="#v"
         transform="matrix(0.0119358,0,0,0.0119358,48.4115,0)"
         id="use6753"
         x="0"
         y="0" />
    </g>
    <g
       id="h">
      <use
         width="100%"
         height="100%"
         xlink:href="#k"
         transform="scale(0.0119358)"
         id="use6756"
         x="0"
         y="0" />
      <use
         width="100%"
         height="100%"
         xlink:href="#m"
         transform="matrix(0.0119358,0,0,0.0119358,9.5128,0)"
         id="use6758"
         x="0"
         y="0" />
      <use
         width="100%"
         height="100%"
         xlink:href="#v"
         transform="matrix(0.0119358,0,0,0.0119358,20.3624,0)"
         id="use6760"
         x="0"
         y="0" />
    </g>
    <clipPath
       id="clip0">
      <rect
         x="57"
         y="342"
         width="1178"
         height="340"
         id="rect16113" />
    </clipPath>
    <clipPath
       id="clip1">
      <rect
         x="57"
         y="366"
         width="1165"
         height="316"
         id="rect16116" />
    </clipPath>
    <clipPath
       id="clip2">
      <rect
         x="57"
         y="366"
         width="1165"
         height="316"
         id="rect16119" />
    </clipPath>
    <clipPath
       id="clip3">
      <rect
         x="57"
         y="366"
         width="1165"
         height="316"
         id="rect16122" />
    </clipPath>
    <path
       d="m 736,-86 c 294,10 346,-88 438,-289 l 33,7 L 1091,0 H 41 v -37 c 81,4 144,-6 174,-56 14,-21 21,-71 21,-148 v -875 c 7,-178 -41,-204 -195,-203 v -37 h 614 v 37 c -184,7 -227,24 -227,226 v 852 c 6,159 26,155 209,155 h 99"
       id="i-3" />
    <path
       d="M 501,28 C 254,34 61,-203 69,-449 c 9,-268 170,-487 443,-494 249,-7 449,219 441,468 -9,274 -167,496 -452,503 z m -20,-906 c -288,0 -259,495 -147,690 55,96 123,145 210,145 65,0 118,-27 160,-80 42,-53 63,-145 63,-275 0,-163 -35,-291 -105,-384 -47,-64 -108,-96 -181,-96"
       id="j-5" />
    <path
       d="m 577,-905 c 31,0 31,-12 46,-38 h 33 v 312 h -33 c -25,-98 -57,-165 -97,-200 -40,-35 -91,-53 -152,-53 -80,0 -156,51 -156,119 0,112 57,134 158,183 l 146,71 c 135,66 203,153 203,261 0,160 -154,278 -306,278 -67,0 -168,-40 -246,-40 -15,0 -27,9 -36,26 h -33 v -327 h 33 c 27,157 125,274 284,282 84,3 157,-59 156,-138 0,-46 -17,-85 -49,-116 -32,-31 -96,-71 -193,-119 -97,-48 -160,-91 -190,-130 -30,-38 -45,-86 -45,-144 -2,-151 122,-265 278,-265 45,0 153,38 199,38"
       id="k-2" />
    <g
       id="a-7">
      <use
         width="100%"
         height="100%"
         xlink:href="#i-3"
         transform="scale(0.0119358)"
         id="use23897"
         x="0"
         y="0" />
      <use
         width="100%"
         height="100%"
         xlink:href="#j-5"
         transform="matrix(0.0119358,0,0,0.0119358,14.9316,0)"
         id="use23899"
         x="0"
         y="0" />
      <use
         width="100%"
         height="100%"
         xlink:href="#k-2"
         transform="matrix(0.0119358,0,0,0.0119358,27.1539,0)"
         id="use23901"
         x="0"
         y="0" />
      <use
         width="100%"
         height="100%"
         xlink:href="#k-2"
         transform="matrix(0.0119358,0,0,0.0119358,36.6667,0)"
         id="use23903"
         x="0"
         y="0" />
    </g>
    <path
       d="m 318,226 c -3,148 19,171 155,175 v 37 H -7 v -37 c 68,2 128,-7 149,-57 7,-16 10,-57 10,-124 v -866 c -3,-93 3,-115 -34,-149 -32,-18 -67,-14 -108,2 l -12,-32 282,-114 h 38 v 214 c 47,-81 94,-137 142,-169 48,-32 98,-49 151,-49 221,3 343,221 343,452 C 954,-226 798,31 536,28 428,27 382,5 318,-53 Z M 532,-798 c -117,0 -121,40 -214,132 3,149 -13,362 9,488 14,79 102,146 206,146 67,0 119,-28 162,-78 114,-131 101,-488 -11,-610 -45,-50 -93,-78 -152,-78"
       id="l-0" />
    <path
       d="m 76,-446 c 0,-285 162,-495 423,-498 208,-2 358,157 352,373 H 218 c -11,236 130,436 334,436 154,0 216,-85 268,-219 l 31,20 C 827,-163 678,33 476,28 240,22 76,-185 76,-446 Z m 142,-183 h 424 c -5,-121 -28,-166 -96,-212 -84,-58 -184,-36 -252,33 -44,43 -69,102 -76,179"
       id="m-6" />
    <path
       d="m 23,-36 c 118,-6 149,-31 144,-170 -5,-152 6,-423 -7,-546 -7,-65 -78,-69 -137,-43 l -10,-36 277,-112 h 42 v 206 c 77,-137 155,-206 236,-206 66,0 127,50 127,111 0,49 -40,94 -88,93 -38,10 -113,-69 -143,-69 -12,0 -25,7 -39,20 -30,27 -61,72 -93,135 v 439 c -2,125 37,177 160,178 V 0 H 23 v -36"
       id="n-8" />
    <g
       id="b-0">
      <use
         width="100%"
         height="100%"
         xlink:href="#l-0"
         transform="scale(0.0119358)"
         id="use23909"
         x="0"
         y="0" />
      <use
         width="100%"
         height="100%"
         xlink:href="#m-6"
         transform="matrix(0.0119358,0,0,0.0119358,12.2222,0)"
         id="use23911"
         x="0"
         y="0" />
      <use
         width="100%"
         height="100%"
         xlink:href="#n-8"
         transform="matrix(0.0119358,0,0,0.0119358,23.0718,0)"
         id="use23913"
         x="0"
         y="0" />
    </g>
    <path
       d="m 78,-36 c 124,1 135,-44 135,-171 v -832 c 0,-103 -4,-167 -7,-191 -9,-68 -68,-72 -128,-45 l -17,-35 273,-112 h 45 v 1215 c 0,136 18,170 148,171 V 0 H 78 v -36"
       id="o-3" />
    <path
       d="M 691,18 C 611,18 583,-38 583,-132 489,-59 430,-17 406,-6 241,73 62,-39 73,-217 c 8,-136 70,-179 173,-244 66,-42 180,-89 337,-146 4,-171 -23,-271 -170,-275 -74,-2 -138,48 -138,112 0,82 -7,154 -83,154 -52,0 -87,-42 -84,-97 8,-140 160,-236 335,-230 142,5 253,33 287,138 46,143 3,474 23,647 4,32 15,47 43,50 52,-8 50,-30 109,-80 v 56 C 830,-32 759,18 691,18 Z M 275,-369 c -78,100 -12,274 108,272 51,0 117,-33 200,-100 v -349 c -101,40 -166,68 -195,85 -53,29 -89,61 -113,92"
       id="p-0" />
    <path
       d="M 481,28 C 344,28 246,-24 150,-88 v -949 c 0,-104 -5,-168 -8,-192 -10,-70 -71,-73 -133,-46 l -14,-35 275,-112 h 45 v 664 c 89,-123 184,-185 287,-185 211,0 351,207 351,450 0,163 -54,294 -162,393 C 698,-15 595,28 481,28 Z m 42,-829 c -100,0 -138,41 -208,107 v 548 c 57,55 120,101 217,101 61,0 115,-36 170,-100 98,-114 105,-447 0,-561 -55,-60 -112,-95 -179,-95"
       id="q-8" />
    <g
       id="c-3">
      <use
         width="100%"
         height="100%"
         xlink:href="#o-3"
         transform="scale(0.0119358)"
         id="use23919"
         x="0"
         y="0" />
      <use
         width="100%"
         height="100%"
         xlink:href="#p-0"
         transform="matrix(0.0119358,0,0,0.0119358,6.79145,0)"
         id="use23921"
         x="0"
         y="0" />
      <use
         width="100%"
         height="100%"
         xlink:href="#q-8"
         transform="matrix(0.0119358,0,0,0.0119358,17.6411,0)"
         id="use23923"
         x="0"
         y="0" />
      <use
         width="100%"
         height="100%"
         xlink:href="#m-6"
         transform="matrix(0.0119358,0,0,0.0119358,29.8633,0)"
         id="use23925"
         x="0"
         y="0" />
      <use
         width="100%"
         height="100%"
         xlink:href="#o-3"
         transform="matrix(0.0119358,0,0,0.0119358,40.7129,0)"
         id="use23927"
         x="0"
         y="0" />
    </g>
    <path
       d="M 183,-205 C 55,-420 41,-825 144,-1070 c 47,-112 108,-195 186,-249 171,-119 340,-68 466,94 103,132 155,309 155,534 0,285 -86,531 -241,641 C 500,99 314,16 183,-205 Z m 113,-791 c -40,264 -35,610 43,808 57,144 167,195 282,100 39,-32 69,-86 88,-162 64,-263 90,-889 -95,-1035 -69,-54 -164,-41 -220,28 -46,57 -80,142 -98,261"
       id="r-0" />
    <use
       width="100%"
       height="100%"
       xlink:href="#r-0"
       id="d-2"
       transform="scale(0.0130208)"
       x="0"
       y="0" />
    <path
       d="m 264,-37 c 167,-9 174,-17 174,-202 v -732 c 0,-99 -3,-162 -10,-190 -21,-82 -97,-71 -173,-31 l -15,-31 330,-161 h 33 v 1145 c -4,178 9,196 171,202 V 0 H 264 v -37"
       id="s-9" />
    <use
       width="100%"
       height="100%"
       xlink:href="#s-9"
       id="e-8"
       transform="scale(0.0130208)"
       x="0"
       y="0" />
    <path
       d="m 145,-83 c 0,-60 51,-111 111,-111 60,0 111,51 111,111 0,59 -52,111 -111,111 -59,0 -111,-52 -111,-111"
       id="t-0" />
    <path
       d="m 291,-131 c 192,145 454,-35 446,-252 -7,-194 -141,-331 -297,-394 -73,-29 -172,-47 -297,-52 l 260,-527 h 486 l -78,170 H 403 l -89,182 c 177,26 315,93 420,197 133,132 175,333 90,518 C 743,-112 571,24 331,24 250,24 191,10 154,-18 117,-46 98,-76 98,-109 c -1,-56 70,-88 126,-63 13,5 36,18 67,41"
       id="u-2" />
    <g
       id="f-8">
      <use
         width="100%"
         height="100%"
         xlink:href="#r-0"
         transform="scale(0.0130208)"
         id="use23936"
         x="0"
         y="0" />
      <use
         width="100%"
         height="100%"
         xlink:href="#t-0"
         transform="matrix(0.0130208,0,0,0.0130208,13.3333,0)"
         id="use23938"
         x="0"
         y="0" />
      <use
         width="100%"
         height="100%"
         xlink:href="#u-2"
         transform="matrix(0.0130208,0,0,0.0130208,20,0)"
         id="use23940"
         x="0"
         y="0" />
    </g>
    <path
       d="M 341,15 C 212,15 165,-74 165,-230 V -846 H 20 v -33 c 86,-36 165,-117 215,-199 15,-25 37,-72 64,-139 h 31 v 301 h 214 v 70 H 330 v 594 c 0,97 17,151 91,151 54,0 95,-36 112,-81 h 39 C 536,-75 459,15 341,15"
       id="v-2" />
    <path
       d="m 244,-8 c -53,-36 -95,-47 -95,-111 0,-23 10,-51 29,-82 19,-31 62,-76 131,-133 -99,-46 -172,-143 -174,-277 -2,-186 168,-332 365,-332 87,0 163,21 227,64 h 194 c 58,0 66,-3 66,43 0,50 -8,47 -66,47 H 802 c 37,48 56,109 56,184 1,229 -252,368 -500,290 -43,39 -67,62 -75,115 7,37 32,50 81,56 73,9 384,11 407,21 112,13 203,88 204,207 0,75 -35,146 -106,212 C 765,393 629,442 462,442 333,442 226,412 136,355 15,279 64,188 142,100 147,94 181,58 244,-8 Z m 265,-336 c 120,0 174,-95 174,-236 0,-106 -23,-189 -69,-249 -34,-44 -78,-66 -131,-66 -117,0 -174,101 -174,240 0,105 23,187 68,245 35,44 79,66 132,66 z M 299,0 c -63,66 -150,185 -37,260 111,73 450,84 554,-2 55,-45 86,-87 86,-135 C 902,88 885,62 851,49 751,10 392,24 299,0"
       id="w-0" />
    <g
       id="g-3">
      <use
         width="100%"
         height="100%"
         xlink:href="#v-2"
         transform="scale(0.0119358)"
         id="use23945"
         x="0"
         y="0" />
      <use
         width="100%"
         height="100%"
         xlink:href="#p-0"
         transform="matrix(0.0119358,0,0,0.0119358,6.79145,0)"
         id="use23947"
         x="0"
         y="0" />
      <use
         width="100%"
         height="100%"
         xlink:href="#n-8"
         transform="matrix(0.0119358,0,0,0.0119358,17.6411,0)"
         id="use23949"
         x="0"
         y="0" />
      <use
         width="100%"
         height="100%"
         xlink:href="#w-0"
         transform="matrix(0.0119358,0,0,0.0119358,25.3396,0)"
         id="use23951"
         x="0"
         y="0" />
      <use
         width="100%"
         height="100%"
         xlink:href="#m-6"
         transform="matrix(0.0119358,0,0,0.0119358,37.5618,0)"
         id="use23953"
         x="0"
         y="0" />
      <use
         width="100%"
         height="100%"
         xlink:href="#v-2"
         transform="matrix(0.0119358,0,0,0.0119358,48.4115,0)"
         id="use23955"
         x="0"
         y="0" />
    </g>
    <g
       id="h-3">
      <use
         width="100%"
         height="100%"
         xlink:href="#k-2"
         transform="scale(0.0119358)"
         id="use23958"
         x="0"
         y="0" />
      <use
         width="100%"
         height="100%"
         xlink:href="#m-6"
         transform="matrix(0.0119358,0,0,0.0119358,9.5128,0)"
         id="use23960"
         x="0"
         y="0" />
      <use
         width="100%"
         height="100%"
         xlink:href="#v-2"
         transform="matrix(0.0119358,0,0,0.0119358,20.3624,0)"
         id="use23962"
         x="0"
         y="0" />
    </g>
    <clipPath
       id="clip0-3">
      <rect
         x="57"
         y="366"
         width="1165"
         height="316"
         id="rect24645" />
    </clipPath>
  </defs>
  <g
     inkscape:label="레이어 1"
     inkscape:groupmode="layer"
     id="layer1"
     transform="translate(74.761493,-176.98128)">
    <text
       xml:space="preserve"
       style="font-size:7.76111px;line-height:1.25;font-family:'Times New Roman';-inkscape-font-specification:'Times New Roman, ';font-variant-ligatures:none;stroke-width:0.264583"
       x="-74.959351"
       y="182.3701"
       id="text8839"><tspan
         sodipodi:role="line"
         id="tspan8837"
         style="font-size:7.76111px;stroke-width:0.264583"
         x="-74.959351"
         y="182.3701">(a) BCE</tspan></text>
    <text
       xml:space="preserve"
       style="font-size:7.76111px;line-height:1.25;font-family:'Times New Roman';-inkscape-font-specification:'Times New Roman, ';font-variant-ligatures:none;stroke-width:0.264583"
       x="15.017985"
       y="182.3701"
       id="text11879"><tspan
         sodipodi:role="line"
         id="tspan11877"
         style="font-size:7.76111px;stroke-width:0.264583"
         x="15.017985"
         y="182.3701">(b) ZLPR</tspan></text>
    <text
       xml:space="preserve"
       style="font-size:7.76111px;line-height:1.25;font-family:'Times New Roman';-inkscape-font-specification:'Times New Roman, ';font-variant-ligatures:none;stroke-width:0.264583"
       x="86.639915"
       y="182.3701"
       id="text12543"><tspan
         sodipodi:role="line"
         id="tspan12541"
         style="font-size:7.76111px;stroke-width:0.264583"
         x="86.639915"
         y="182.3701">(c) HBM</tspan></text>
    <g
       clip-path="url(#clip0-3)"
       transform="matrix(0.26458333,0,0,0.26458333,-90.809303,83.991658)"
       id="g25042">
      <path
         d="m 791.53,439.853 c 0,-4.418 3.58,-8 8,-8 h 123.7 c 4.42,0 8,3.582 8,8 v 155.14 c 0,4.418 -3.58,8 -8,8 h -123.7 c -4.42,0 -8,-3.582 -8,-8 z M 497,439.803 c 0,-4.418 3.582,-8 8,-8 h 103.7 c 4.42,0 8,3.582 8,8 v 155.14 c 0,4.418 -3.58,8 -8,8 H 505 c -4.418,0 -8,-3.582 -8,-8 z m -70,0 c 0,-4.418 3.582,-8 8,-8 h 43.7 c 4.418,0 8,3.582 8,8 v 155.14 c 0,4.418 -3.582,8 -8,8 H 435 c -4.418,0 -8,-3.582 -8,-8 z"
         stroke="#000000"
         stroke-width="2"
         fill="#f2f3f5"
         id="path24650" />
      <path
         d="m 107,439.803 c 0,-4.418 3.582,-8 8,-8 h 54.32 c 4.418,0 8,3.582 8,8 v 163.64 c 0,4.418 -3.582,8 -8,8 H 115 c -4.418,0 -8,-3.582 -8,-8 z"
         fill="#f2f3f5"
         id="path24652" />
      <path
         d="m 126.94,604.143 v 18 c 0.004,0.013 0.017,0.021 0.03,0.02 0.017,0 0.03,0.013 0.03,0.03 v 0.5"
         stroke="#000000"
         stroke-width="2"
         fill="none"
         id="path24654" />
      <path
         d="m 127.94,604.173 h -2 v -1.03 h 2 z"
         stroke="#000000"
         stroke-width="0.05"
         id="path24656" />
      <path
         d="m 127,637.953 -4.63,-14.27 h 9.26 z"
         stroke="#000000"
         stroke-width="2"
         id="path24658" />
      <path
         d="m 157,604.143 v 18.54"
         stroke="#000000"
         stroke-width="2"
         fill="none"
         id="path24660" />
      <path
         d="m 158,604.173 h -2 v -1.03 h 2 z"
         stroke="#000000"
         stroke-width="0.05"
         id="path24662" />
      <path
         d="m 157,637.953 -4.63,-14.27 h 9.26 z"
         stroke="#000000"
         stroke-width="2"
         id="path24664" />
      <path
         d="m 187.32,439.803 c 0,-4.418 3.582,-8 8,-8 h 144 c 4.418,0 8,3.582 8,8 v 163.64 c 0,4.418 -3.582,8 -8,8 h -144 c -4.418,0 -8,-3.582 -8,-8 z"
         fill="#f2f3f5"
         id="path24666" />
      <path
         d="m 207.32,622.683 v -18.52"
         stroke="#000000"
         stroke-width="2"
         fill="none"
         id="path24668" />
      <path
         d="m 207.32,637.953 -4.64,-14.27 h 9.27 z"
         stroke="#000000"
         stroke-width="2"
         id="path24670" />
      <path
         d="m 208.32,604.173 h -2 v -1.03 h 2 z"
         stroke="#000000"
         stroke-width="0.05"
         id="path24672" />
      <path
         d="m 237.32,622.683 v -18.54"
         stroke="#000000"
         stroke-width="2"
         fill="none"
         id="path24674" />
      <path
         d="m 237.32,637.953 -4.64,-14.27 h 9.27 z"
         stroke="#000000"
         stroke-width="2"
         id="path24676" />
      <path
         d="m 238.32,604.173 h -2 v -1.03 h 2 z"
         stroke="#000000"
         stroke-width="0.05"
         id="path24678" />
      <path
         d="m 267.32,622.683 v -18.54"
         stroke="#000000"
         stroke-width="2"
         fill="none"
         id="path24680" />
      <path
         d="m 267.32,637.953 -4.64,-14.27 h 9.27 z"
         stroke="#000000"
         stroke-width="2"
         id="path24682" />
      <path
         d="m 268.32,604.173 h -2 v -1.03 h 2 z"
         stroke="#000000"
         stroke-width="0.05"
         id="path24684" />
      <path
         d="m 297.32,622.683 v -18.52"
         stroke="#000000"
         stroke-width="2"
         fill="none"
         id="path24686" />
      <path
         d="m 297.32,637.953 -4.64,-14.27 h 9.27 z"
         stroke="#000000"
         stroke-width="2"
         id="path24688" />
      <path
         d="m 298.32,604.173 h -2 v -1.03 h 2 z"
         stroke="#000000"
         stroke-width="0.05"
         id="path24690" />
      <path
         d="m 327.32,604.143 v 18.54"
         stroke="#000000"
         stroke-width="2"
         fill="none"
         id="path24692" />
      <path
         d="m 328.32,604.173 h -2 v -1.03 h 2 z"
         stroke="#000000"
         stroke-width="0.05"
         id="path24694" />
      <path
         d="m 327.32,637.953 -4.64,-14.27 h 9.27 z"
         stroke="#000000"
         stroke-width="2"
         id="path24696" />
      <path
         d="m 167.226,669.028 c 3.509,0.119 4.13,-1.051 5.228,-3.45 l 0.394,0.084 -1.385,4.392 H 158.93 v -0.442 c 0.967,0.048 1.719,-0.071 2.077,-0.668 0.167,-0.251 0.251,-0.847 0.251,-1.767 v -10.443 c 0.083,-2.125 -0.49,-2.435 -2.328,-2.423 v -0.442 h 7.329 v 0.442 c -2.196,0.083 -2.709,0.286 -2.709,2.697 v 10.169 c 0.071,1.898 0.31,1.851 2.494,1.851 h 1.182"
         id="path24698" />
      <path
         d="m 179.352,670.388 c -2.948,0.072 -5.251,-2.757 -5.156,-5.693 0.108,-3.199 2.029,-5.813 5.288,-5.896 2.972,-0.084 5.359,2.613 5.263,5.586 -0.107,3.27 -1.993,5.92 -5.395,6.003 z m -0.238,-10.814 c -3.438,0 -3.092,5.909 -1.755,8.236 0.657,1.146 1.468,1.731 2.507,1.731 0.776,0 1.408,-0.322 1.909,-0.955 0.502,-0.633 0.752,-1.731 0.752,-3.282 0,-1.946 -0.417,-3.474 -1.253,-4.584 -0.561,-0.764 -1.289,-1.146 -2.16,-1.146"
         id="path24700" />
      <path
         d="m 192.482,659.252 c 0.37,0 0.37,-0.143 0.549,-0.453 h 0.394 v 3.724 h -0.394 c -0.299,-1.17 -0.68,-1.97 -1.158,-2.388 -0.477,-0.417 -1.086,-0.632 -1.814,-0.632 -0.955,0 -1.862,0.609 -1.862,1.42 0,1.337 0.68,1.6 1.886,2.184 l 1.742,0.848 c 1.612,0.788 2.423,1.826 2.423,3.115 0,1.91 -1.838,3.318 -3.652,3.318 -0.8,0 -2.005,-0.477 -2.936,-0.477 -0.179,0 -0.322,0.107 -0.43,0.31 h -0.394 v -3.903 h 0.394 c 0.322,1.874 1.492,3.271 3.39,3.366 1.002,0.036 1.874,-0.704 1.862,-1.647 0,-0.549 -0.203,-1.015 -0.585,-1.385 -0.382,-0.37 -1.146,-0.847 -2.304,-1.42 -1.157,-0.573 -1.909,-1.086 -2.267,-1.552 -0.358,-0.453 -0.538,-1.026 -0.538,-1.718 -0.023,-1.803 1.457,-3.163 3.319,-3.163 0.537,0 1.826,0.453 2.375,0.453"
         id="path24702" />
      <path
         d="m 201.995,659.252 c 0.37,0 0.37,-0.143 0.549,-0.453 h 0.394 v 3.724 h -0.394 c -0.299,-1.17 -0.681,-1.97 -1.158,-2.388 -0.478,-0.417 -1.086,-0.632 -1.814,-0.632 -0.955,0 -1.862,0.609 -1.862,1.42 0,1.337 0.68,1.6 1.886,2.184 l 1.742,0.848 c 1.612,0.788 2.423,1.826 2.423,3.115 0,1.91 -1.838,3.318 -3.652,3.318 -0.8,0 -2.005,-0.477 -2.936,-0.477 -0.179,0 -0.323,0.107 -0.43,0.31 h -0.394 v -3.903 h 0.394 c 0.322,1.874 1.492,3.271 3.39,3.366 1.002,0.036 1.874,-0.704 1.862,-1.647 0,-0.549 -0.203,-1.015 -0.585,-1.385 -0.382,-0.37 -1.146,-0.847 -2.304,-1.42 -1.158,-0.573 -1.91,-1.086 -2.268,-1.552 -0.358,-0.453 -0.537,-1.026 -0.537,-1.718 -0.024,-1.803 1.456,-3.163 3.318,-3.163 0.538,0 1.827,0.453 2.376,0.453"
         id="path24704" />
      <path
         d="m 214.528,672.752 c -0.036,1.766 0.226,2.041 1.85,2.088 v 0.442 h -5.73 v -0.442 c 0.812,0.024 1.528,-0.083 1.779,-0.68 0.083,-0.191 0.119,-0.68 0.119,-1.48 v -10.336 c -0.036,-1.111 0.036,-1.373 -0.406,-1.779 -0.382,-0.215 -0.799,-0.167 -1.289,0.024 l -0.143,-0.382 3.366,-1.361 h 0.454 v 2.555 c 0.561,-0.967 1.122,-1.636 1.694,-2.018 0.573,-0.382 1.17,-0.584 1.803,-0.584 2.638,0.035 4.094,2.637 4.094,5.395 0,3.163 -1.862,6.23 -4.989,6.194 -1.289,-0.012 -1.839,-0.274 -2.602,-0.967 z m 2.554,-12.223 c -1.397,0 -1.444,0.478 -2.554,1.576 0.035,1.778 -0.156,4.321 0.107,5.824 0.167,0.943 1.217,1.743 2.459,1.743 0.799,0 1.42,-0.334 1.933,-0.931 1.361,-1.564 1.206,-5.825 -0.131,-7.281 -0.537,-0.597 -1.11,-0.931 -1.814,-0.931"
         id="path24706" />
      <path
         d="m 223.861,664.731 c 0,-3.402 1.934,-5.909 5.049,-5.944 2.483,-0.024 4.273,1.874 4.202,4.452 h -7.556 c -0.131,2.817 1.552,5.204 3.987,5.204 1.838,0 2.578,-1.015 3.199,-2.614 l 0.37,0.238 c -0.287,2.041 -2.065,4.381 -4.476,4.321 -2.817,-0.071 -4.775,-2.542 -4.775,-5.657 z m 1.695,-2.185 h 5.061 c -0.06,-1.444 -0.334,-1.981 -1.146,-2.53 -1.002,-0.692 -2.196,-0.43 -3.008,0.394 -0.525,0.513 -0.823,1.217 -0.907,2.136"
         id="path24708" />
      <path
         d="m 234.078,669.624 c 1.409,-0.071 1.779,-0.37 1.719,-2.029 -0.06,-1.814 0.072,-5.049 -0.083,-6.517 -0.084,-0.776 -0.931,-0.823 -1.636,-0.513 l -0.119,-0.43 3.306,-1.336 h 0.501 v 2.458 c 0.92,-1.635 1.851,-2.458 2.817,-2.458 0.788,0 1.516,0.596 1.516,1.324 0,0.585 -0.477,1.122 -1.05,1.11 -0.454,0.12 -1.349,-0.823 -1.707,-0.823 -0.143,0 -0.298,0.083 -0.465,0.239 -0.359,0.322 -0.729,0.859 -1.111,1.611 v 5.24 c -0.023,1.492 0.442,2.112 1.91,2.124 v 0.43 h -5.598 v -0.43"
         id="path24710" />
      <path
         d="m 248.986,669.624 c 1.48,0.012 1.611,-0.525 1.611,-2.041 v -9.93 c 0,-1.23 -0.047,-1.994 -0.083,-2.28 -0.108,-0.812 -0.812,-0.859 -1.528,-0.537 l -0.203,-0.418 3.259,-1.337 h 0.537 v 14.502 c 0,1.624 0.215,2.029 1.766,2.041 v 0.43 h -5.359 v -0.43"
         id="path24712" />
      <path
         d="m 263.094,670.269 c -0.955,0 -1.289,-0.669 -1.289,-1.79 -1.122,0.871 -1.826,1.372 -2.113,1.503 -1.969,0.943 -4.106,-0.393 -3.974,-2.518 0.095,-1.623 0.835,-2.137 2.065,-2.912 0.787,-0.502 2.148,-1.063 4.022,-1.743 0.048,-2.041 -0.275,-3.235 -2.029,-3.282 -0.883,-0.024 -1.647,0.573 -1.647,1.336 0,0.979 -0.084,1.839 -0.991,1.839 -0.621,0 -1.038,-0.502 -1.002,-1.158 0.095,-1.671 1.909,-2.817 3.998,-2.745 1.695,0.059 3.02,0.393 3.426,1.647 0.549,1.707 0.035,5.657 0.274,7.722 0.048,0.382 0.179,0.561 0.513,0.597 0.621,-0.096 0.597,-0.358 1.301,-0.955 v 0.669 c -0.895,1.193 -1.742,1.79 -2.554,1.79 z m -4.965,-4.619 c -0.931,1.193 -0.143,3.27 1.289,3.246 0.609,0 1.396,-0.394 2.387,-1.193 v -4.166 c -1.205,0.478 -1.981,0.812 -2.327,1.015 -0.633,0.346 -1.063,0.728 -1.349,1.098"
         id="path24714" />
      <path
         d="m 271.437,670.388 c -1.635,0 -2.805,-0.62 -3.951,-1.384 v -11.327 c 0,-1.242 -0.059,-2.006 -0.095,-2.292 -0.119,-0.836 -0.847,-0.871 -1.587,-0.549 l -0.168,-0.418 3.283,-1.337 h 0.537 v 7.926 c 1.062,-1.468 2.196,-2.208 3.425,-2.208 2.519,0 4.19,2.47 4.19,5.371 0,1.945 -0.645,3.509 -1.934,4.69 -1.11,1.015 -2.339,1.528 -3.7,1.528 z m 0.502,-9.895 c -1.194,0 -1.648,0.49 -2.483,1.278 v 6.54 c 0.68,0.657 1.432,1.206 2.59,1.206 0.728,0 1.373,-0.43 2.029,-1.194 1.17,-1.36 1.253,-5.335 0,-6.696 -0.656,-0.716 -1.337,-1.134 -2.136,-1.134"
         id="path24716" />
      <path
         d="m 278.825,664.731 c 0,-3.402 1.934,-5.909 5.049,-5.944 2.483,-0.024 4.273,1.874 4.202,4.452 h -7.556 c -0.131,2.817 1.552,5.204 3.987,5.204 1.838,0 2.578,-1.015 3.199,-2.614 l 0.37,0.238 c -0.287,2.041 -2.065,4.381 -4.476,4.321 -2.817,-0.071 -4.775,-2.542 -4.775,-5.657 z m 1.695,-2.185 h 5.061 c -0.06,-1.444 -0.334,-1.981 -1.146,-2.53 -1.002,-0.692 -2.196,-0.43 -3.008,0.394 -0.525,0.513 -0.823,1.217 -0.907,2.136"
         id="path24718" />
      <path
         d="m 289.699,669.624 c 1.48,0.012 1.611,-0.525 1.611,-2.041 v -9.93 c 0,-1.23 -0.048,-1.994 -0.083,-2.28 -0.108,-0.812 -0.812,-0.859 -1.528,-0.537 l -0.203,-0.418 3.258,-1.337 h 0.538 v 14.502 c 0,1.624 0.214,2.029 1.766,2.041 v 0.43 h -5.359 v -0.43"
         id="path24720" />
      <path
         d="M 98.85,601.963 H 355.5 m -256.6,0 h -1.55 m 258.11,0 H 357"
         stroke="#000000"
         stroke-width="3"
         fill="none"
         id="path24722" />
      <path
         d="m 82.0498,607.741 c -1.6667,-2.8 -1.8489,-8.073 -0.5078,-11.263 0.612,-1.459 1.4062,-2.539 2.4219,-3.242 2.2265,-1.55 4.427,-0.886 6.0677,1.223 1.3411,1.719 2.0182,4.024 2.0182,6.954 0,3.711 -1.1198,6.914 -3.138,8.346 -2.7344,1.94 -5.1563,0.859 -6.862,-2.018 z m 1.4714,-10.3 c -0.5209,3.438 -0.4558,7.943 0.5599,10.521 0.7421,1.875 2.1744,2.539 3.6718,1.302 0.5078,-0.417 0.8985,-1.12 1.1459,-2.109 0.8333,-3.425 1.1718,-11.576 -1.237,-13.477 -0.8985,-0.703 -2.1354,-0.534 -2.8646,0.365 -0.599,0.742 -1.0417,1.849 -1.276,3.398"
         id="path24724" />
      <path
         d="m 83.1045,449.772 c 2.1745,-0.117 2.2656,-0.221 2.2656,-2.63 v -9.531 c 0,-1.289 -0.0391,-2.11 -0.1302,-2.474 -0.2734,-1.068 -1.263,-0.925 -2.2526,-0.404 l -0.1953,-0.403 4.2969,-2.097 h 0.4296 v 14.909 c -0.052,2.318 0.1172,2.552 2.2266,2.63 v 0.482 h -6.6406 v -0.482"
         id="path24726" />
      <path
         d="m 62.0498,527.359 c -1.6667,-2.8 -1.8489,-8.073 -0.5078,-11.263 0.612,-1.459 1.4062,-2.539 2.4219,-3.242 2.2265,-1.55 4.427,-0.886 6.0677,1.224 1.3411,1.718 2.0182,4.023 2.0182,6.953 0,3.711 -1.1198,6.914 -3.138,8.346 -2.7344,1.94 -5.1563,0.859 -6.862,-2.018 z m 1.4714,-10.3 c -0.5209,3.438 -0.4558,7.943 0.5599,10.521 0.7421,1.875 2.1744,2.539 3.6718,1.302 0.5078,-0.416 0.8985,-1.12 1.1459,-2.109 0.8333,-3.425 1.1718,-11.576 -1.237,-13.477 -0.8985,-0.703 -2.1354,-0.534 -2.8646,0.365 -0.599,0.742 -1.0417,1.849 -1.276,3.398"
         id="path24728" />
      <path
         d="m 74.8883,528.947 c 0,-0.781 0.6641,-1.445 1.4453,-1.445 0.7813,0 1.4453,0.664 1.4453,1.445 0,0.769 -0.677,1.446 -1.4453,1.446 -0.7682,0 -1.4453,-0.677 -1.4453,-1.446"
         id="path24730" />
      <path
         d="m 83.4561,528.322 c 2.4999,1.888 5.9114,-0.455 5.8072,-3.281 -0.0911,-2.526 -1.8359,-4.31 -3.8672,-5.13 -0.9505,-0.378 -2.2395,-0.612 -3.8671,-0.677 l 3.3854,-6.862 h 6.3281 l -1.0156,2.213 h -5.3125 l -1.1589,2.37 c 2.3047,0.339 4.1016,1.211 5.4688,2.565 1.7317,1.719 2.2786,4.336 1.1718,6.745 -1.0546,2.305 -3.2942,4.076 -6.4192,4.076 -1.0547,0 -1.8229,-0.183 -2.3047,-0.547 -0.4818,-0.365 -0.7292,-0.756 -0.7292,-1.185 -0.013,-0.729 0.9115,-1.146 1.6407,-0.821 0.1692,0.066 0.4687,0.235 0.8724,0.534"
         id="path24732" />
      <path
         d="m 441.939,669.028 c 3.509,0.119 4.13,-1.051 5.228,-3.45 l 0.394,0.084 -1.385,4.392 h -12.533 v -0.442 c 0.967,0.048 1.719,-0.071 2.077,-0.668 0.167,-0.251 0.251,-0.847 0.251,-1.767 v -10.443 c 0.083,-2.125 -0.49,-2.435 -2.328,-2.423 v -0.442 h 7.329 v 0.442 c -2.196,0.083 -2.709,0.286 -2.709,2.697 v 10.169 c 0.071,1.898 0.31,1.851 2.494,1.851 h 1.182"
         id="path24734" />
      <path
         d="m 454.065,670.388 c -2.948,0.072 -5.251,-2.757 -5.156,-5.693 0.108,-3.199 2.029,-5.813 5.288,-5.896 2.972,-0.084 5.359,2.613 5.263,5.586 -0.107,3.27 -1.993,5.92 -5.395,6.003 z m -0.238,-10.814 c -3.438,0 -3.092,5.909 -1.755,8.236 0.657,1.146 1.468,1.731 2.507,1.731 0.775,0 1.408,-0.322 1.909,-0.955 0.502,-0.633 0.752,-1.731 0.752,-3.282 0,-1.946 -0.417,-3.474 -1.253,-4.584 -0.561,-0.764 -1.289,-1.146 -2.16,-1.146"
         id="path24736" />
      <path
         d="m 467.195,659.252 c 0.37,0 0.37,-0.143 0.549,-0.453 h 0.394 v 3.724 h -0.394 c -0.299,-1.17 -0.68,-1.97 -1.158,-2.388 -0.477,-0.417 -1.086,-0.632 -1.814,-0.632 -0.955,0 -1.862,0.609 -1.862,1.42 0,1.337 0.68,1.6 1.886,2.184 l 1.742,0.848 c 1.612,0.788 2.423,1.826 2.423,3.115 0,1.91 -1.838,3.318 -3.652,3.318 -0.8,0 -2.005,-0.477 -2.936,-0.477 -0.179,0 -0.322,0.107 -0.43,0.31 h -0.394 v -3.903 h 0.394 c 0.322,1.874 1.492,3.271 3.39,3.366 1.002,0.036 1.874,-0.704 1.862,-1.647 0,-0.549 -0.203,-1.015 -0.585,-1.385 -0.382,-0.37 -1.146,-0.847 -2.304,-1.42 -1.157,-0.573 -1.909,-1.086 -2.267,-1.552 -0.358,-0.453 -0.538,-1.026 -0.538,-1.718 -0.023,-1.803 1.457,-3.163 3.319,-3.163 0.537,0 1.826,0.453 2.375,0.453"
         id="path24738" />
      <path
         d="m 476.708,659.252 c 0.37,0 0.37,-0.143 0.549,-0.453 h 0.394 v 3.724 h -0.394 c -0.299,-1.17 -0.681,-1.97 -1.158,-2.388 -0.477,-0.417 -1.086,-0.632 -1.814,-0.632 -0.955,0 -1.862,0.609 -1.862,1.42 0,1.337 0.68,1.6 1.886,2.184 l 1.742,0.848 c 1.612,0.788 2.423,1.826 2.423,3.115 0,1.91 -1.838,3.318 -3.652,3.318 -0.8,0 -2.005,-0.477 -2.936,-0.477 -0.179,0 -0.323,0.107 -0.43,0.31 h -0.394 v -3.903 h 0.394 c 0.322,1.874 1.492,3.271 3.39,3.366 1.002,0.036 1.874,-0.704 1.862,-1.647 0,-0.549 -0.203,-1.015 -0.585,-1.385 -0.382,-0.37 -1.146,-0.847 -2.304,-1.42 -1.158,-0.573 -1.91,-1.086 -2.268,-1.552 -0.358,-0.453 -0.537,-1.026 -0.537,-1.718 -0.024,-1.803 1.456,-3.163 3.318,-3.163 0.538,0 1.827,0.453 2.376,0.453"
         id="path24740" />
      <path
         d="m 489.241,672.752 c -0.036,1.766 0.226,2.041 1.85,2.088 v 0.442 h -5.73 v -0.442 c 0.812,0.024 1.528,-0.083 1.779,-0.68 0.083,-0.191 0.119,-0.68 0.119,-1.48 v -10.336 c -0.036,-1.111 0.036,-1.373 -0.406,-1.779 -0.382,-0.215 -0.799,-0.167 -1.289,0.024 l -0.143,-0.382 3.366,-1.361 h 0.454 v 2.555 c 0.561,-0.967 1.122,-1.636 1.694,-2.018 0.573,-0.382 1.17,-0.584 1.803,-0.584 2.638,0.035 4.094,2.637 4.094,5.395 0,3.163 -1.862,6.23 -4.989,6.194 -1.289,-0.012 -1.839,-0.274 -2.602,-0.967 z m 2.554,-12.223 c -1.397,0 -1.444,0.478 -2.554,1.576 0.035,1.778 -0.156,4.321 0.107,5.824 0.167,0.943 1.217,1.743 2.459,1.743 0.799,0 1.42,-0.334 1.933,-0.931 1.361,-1.564 1.206,-5.825 -0.131,-7.281 -0.537,-0.597 -1.11,-0.931 -1.814,-0.931"
         id="path24742" />
      <path
         d="m 498.574,664.731 c 0,-3.402 1.934,-5.909 5.049,-5.944 2.483,-0.024 4.273,1.874 4.202,4.452 h -7.556 c -0.131,2.817 1.552,5.204 3.987,5.204 1.838,0 2.578,-1.015 3.199,-2.614 l 0.37,0.238 c -0.287,2.041 -2.065,4.381 -4.476,4.321 -2.817,-0.071 -4.775,-2.542 -4.775,-5.657 z m 1.695,-2.185 h 5.061 c -0.06,-1.444 -0.334,-1.981 -1.146,-2.53 -1.002,-0.692 -2.196,-0.43 -3.008,0.394 -0.525,0.513 -0.823,1.217 -0.907,2.136"
         id="path24744" />
      <path
         d="m 508.791,669.624 c 1.409,-0.071 1.779,-0.37 1.719,-2.029 -0.06,-1.814 0.072,-5.049 -0.083,-6.517 -0.084,-0.776 -0.931,-0.823 -1.636,-0.513 l -0.119,-0.43 3.306,-1.336 h 0.501 v 2.458 c 0.92,-1.635 1.851,-2.458 2.817,-2.458 0.788,0 1.516,0.596 1.516,1.324 0,0.585 -0.477,1.122 -1.05,1.11 -0.454,0.12 -1.349,-0.823 -1.707,-0.823 -0.143,0 -0.298,0.083 -0.465,0.239 -0.359,0.322 -0.729,0.859 -1.111,1.611 v 5.24 c -0.023,1.492 0.442,2.112 1.91,2.124 v 0.43 h -5.598 v -0.43"
         id="path24746" />
      <path
         d="m 526.838,670.233 c -1.54,0 -2.101,-1.062 -2.101,-2.924 v -7.353 h -1.73 v -0.394 c 1.026,-0.429 1.969,-1.396 2.566,-2.375 0.179,-0.298 0.442,-0.859 0.764,-1.659 h 0.37 v 3.593 h 2.554 v 0.835 h -2.554 v 7.09 c 0,1.158 0.203,1.803 1.086,1.803 0.645,0 1.134,-0.43 1.337,-0.967 h 0.465 c -0.429,1.277 -1.348,2.351 -2.757,2.351"
         id="path24748" />
      <path
         d="m 537.807,670.269 c -0.955,0 -1.289,-0.669 -1.289,-1.79 -1.122,0.871 -1.826,1.372 -2.113,1.503 -1.969,0.943 -4.106,-0.393 -3.974,-2.518 0.095,-1.623 0.835,-2.137 2.065,-2.912 0.787,-0.502 2.148,-1.063 4.022,-1.743 0.048,-2.041 -0.275,-3.235 -2.029,-3.282 -0.883,-0.024 -1.647,0.573 -1.647,1.336 0,0.979 -0.084,1.839 -0.991,1.839 -0.621,0 -1.038,-0.502 -1.002,-1.158 0.095,-1.671 1.909,-2.817 3.998,-2.745 1.695,0.059 3.02,0.393 3.426,1.647 0.549,1.707 0.035,5.657 0.274,7.722 0.048,0.382 0.179,0.561 0.513,0.597 0.621,-0.096 0.597,-0.358 1.301,-0.955 v 0.669 c -0.895,1.193 -1.742,1.79 -2.554,1.79 z m -4.965,-4.619 c -0.931,1.193 -0.143,3.27 1.289,3.246 0.609,0 1.396,-0.394 2.387,-1.193 v -4.166 c -1.206,0.478 -1.981,0.812 -2.327,1.015 -0.633,0.346 -1.063,0.728 -1.349,1.098"
         id="path24750" />
      <path
         d="m 540.684,669.624 c 1.408,-0.071 1.778,-0.37 1.718,-2.029 -0.059,-1.814 0.072,-5.049 -0.083,-6.517 -0.084,-0.776 -0.931,-0.823 -1.635,-0.513 l -0.12,-0.43 3.306,-1.336 h 0.502 v 2.458 c 0.919,-1.635 1.85,-2.458 2.817,-2.458 0.787,0 1.516,0.596 1.516,1.324 0,0.585 -0.478,1.122 -1.051,1.11 -0.453,0.12 -1.349,-0.823 -1.707,-0.823 -0.143,0 -0.298,0.083 -0.465,0.239 -0.358,0.322 -0.728,0.859 -1.11,1.611 v 5.24 c -0.024,1.492 0.441,2.112 1.91,2.124 v 0.43 h -5.598 v -0.43"
         id="path24752" />
      <path
         d="m 551.02,669.959 c -0.633,-0.43 -1.134,-0.561 -1.134,-1.325 0,-0.275 0.119,-0.609 0.346,-0.979 0.227,-0.37 0.74,-0.907 1.564,-1.588 -1.182,-0.549 -2.053,-1.706 -2.077,-3.306 -0.024,-2.22 2.005,-3.962 4.357,-3.962 1.038,0 1.945,0.25 2.709,0.763 h 2.315 c 0.693,0 0.788,-0.035 0.788,0.514 0,0.596 -0.095,0.561 -0.788,0.561 h -1.42 c 0.442,0.573 0.669,1.301 0.669,2.196 0.011,2.733 -3.008,4.392 -5.968,3.461 -0.514,0.466 -0.8,0.74 -0.896,1.373 0.084,0.441 0.382,0.597 0.967,0.668 0.872,0.108 4.584,0.132 4.858,0.251 1.337,0.155 2.423,1.05 2.435,2.471 0,0.895 -0.418,1.742 -1.265,2.53 -1.242,1.158 -2.865,1.743 -4.858,1.743 -1.54,0 -2.817,-0.358 -3.891,-1.039 -1.444,-0.907 -0.859,-1.993 0.071,-3.043 0.06,-0.072 0.466,-0.502 1.218,-1.289 z m 3.163,-4.011 c 1.432,0 2.077,-1.134 2.077,-2.817 0,-1.265 -0.275,-2.256 -0.824,-2.972 -0.406,-0.525 -0.931,-0.788 -1.563,-0.788 -1.397,0 -2.077,1.206 -2.077,2.865 0,1.253 0.274,2.232 0.811,2.924 0.418,0.525 0.943,0.788 1.576,0.788 z m -2.507,4.106 c -0.752,0.788 -1.79,2.208 -0.441,3.103 1.325,0.872 5.371,1.003 6.612,-0.024 0.657,-0.537 1.027,-1.038 1.027,-1.611 0,-0.418 -0.203,-0.728 -0.609,-0.883 -1.194,-0.466 -5.479,-0.299 -6.589,-0.585"
         id="path24754" />
      <path
         d="m 561.237,664.731 c 0,-3.402 1.933,-5.909 5.049,-5.944 2.482,-0.024 4.273,1.874 4.201,4.452 h -7.555 c -0.132,2.817 1.551,5.204 3.986,5.204 1.838,0 2.578,-1.015 3.199,-2.614 l 0.37,0.238 c -0.286,2.041 -2.065,4.381 -4.476,4.321 -2.817,-0.071 -4.774,-2.542 -4.774,-5.657 z m 1.695,-2.185 h 5.061 c -0.06,-1.444 -0.335,-1.981 -1.146,-2.53 -1.003,-0.692 -2.196,-0.43 -3.008,0.394 -0.525,0.513 -0.824,1.217 -0.907,2.136"
         id="path24756" />
      <path
         d="m 575.25,670.233 c -1.54,0 -2.101,-1.062 -2.101,-2.924 v -7.353 h -1.731 v -0.394 c 1.027,-0.429 1.97,-1.396 2.566,-2.375 0.179,-0.298 0.442,-0.859 0.764,-1.659 h 0.37 v 3.593 h 2.555 v 0.835 h -2.555 v 7.09 c 0,1.158 0.203,1.803 1.086,1.803 0.645,0 1.134,-0.43 1.337,-0.967 h 0.466 c -0.43,1.277 -1.349,2.351 -2.757,2.351"
         id="path24758" />
      <path
         d="m 590.967,659.252 c 0.37,0 0.37,-0.143 0.549,-0.453 h 0.394 v 3.724 h -0.394 c -0.298,-1.17 -0.68,-1.97 -1.158,-2.388 -0.477,-0.417 -1.086,-0.632 -1.814,-0.632 -0.955,0 -1.862,0.609 -1.862,1.42 0,1.337 0.68,1.6 1.886,2.184 l 1.742,0.848 c 1.612,0.788 2.423,1.826 2.423,3.115 0,1.91 -1.838,3.318 -3.652,3.318 -0.8,0 -2.005,-0.477 -2.936,-0.477 -0.179,0 -0.322,0.107 -0.43,0.31 h -0.394 v -3.903 h 0.394 c 0.322,1.874 1.492,3.271 3.39,3.366 1.003,0.036 1.874,-0.704 1.862,-1.647 0,-0.549 -0.203,-1.015 -0.585,-1.385 -0.382,-0.37 -1.146,-0.847 -2.304,-1.42 -1.157,-0.573 -1.909,-1.086 -2.267,-1.552 -0.358,-0.453 -0.537,-1.026 -0.537,-1.718 -0.024,-1.803 1.456,-3.163 3.318,-3.163 0.537,0 1.826,0.453 2.375,0.453"
         id="path24760" />
      <path
         d="m 594.5,664.731 c 0,-3.402 1.933,-5.909 5.049,-5.944 2.482,-0.024 4.273,1.874 4.201,4.452 h -7.555 c -0.132,2.817 1.551,5.204 3.986,5.204 1.838,0 2.578,-1.015 3.199,-2.614 l 0.37,0.238 c -0.286,2.041 -2.065,4.381 -4.476,4.321 -2.817,-0.071 -4.774,-2.542 -4.774,-5.657 z m 1.695,-2.185 h 5.061 c -0.06,-1.444 -0.335,-1.981 -1.146,-2.53 -1.003,-0.692 -2.196,-0.43 -3.008,0.394 -0.525,0.513 -0.824,1.217 -0.907,2.136"
         id="path24762" />
      <path
         d="m 608.513,670.233 c -1.54,0 -2.101,-1.062 -2.101,-2.924 v -7.353 h -1.731 v -0.394 c 1.027,-0.429 1.97,-1.396 2.566,-2.375 0.179,-0.298 0.442,-0.859 0.764,-1.659 h 0.37 v 3.593 h 2.554 v 0.835 h -2.554 v 7.09 c 0,1.158 0.203,1.803 1.086,1.803 0.645,0 1.134,-0.43 1.337,-0.967 h 0.466 c -0.43,1.277 -1.349,2.351 -2.757,2.351"
         id="path24764" />
      <path
         d="m 565.7,521.643 c 0.55,0 1,0.448 1,1 v 39.97 c 0,0.552 -0.45,1 -1,1 h -18 c -0.552,0 -1,-0.448 -1,-1 v -39.99 c 0,-0.552 0.448,-1 1,-1 z"
         stroke="#000000"
         stroke-width="3"
         fill="#ffd9d9"
         id="path24766" />
      <path
         d="m 455.67,521.323 c 0.552,0 1,0.448 1,1 v 18.98 c 0,0.552 -0.448,1 -1,1 h -18 c -0.552,0 -1,-0.448 -1,-1 v -18.98 c 0,-0.552 0.448,-1 1,-1 z"
         stroke="#000000"
         stroke-width="3"
         fill="#e3fae3"
         id="path24768" />
      <path
         d="m 525.7,521.643 c 0.552,0 1,0.448 1,1 v 68.9 c 0,0.552 -0.448,1 -1,1 h -18 c -0.552,0 -1,-0.448 -1,-1 v -68.9 c 0,-0.552 0.448,-1 1,-1 z m 20,0 c 0.552,0 1,0.448 1,1 v 53.96 c 0,0.552 -0.448,1 -1,1 h -18 c -0.552,0 -1,-0.448 -1,-1 v -53.96 c 0,-0.552 0.448,-1 1,-1 z m 39.93,0 c 0.55,0 1,0.448 1,1 v 11.22 c 0,0.552 -0.45,1 -1,1 h -18 c -0.55,0 -1,-0.448 -1,-1 v -11.22 c 0,-0.552 0.45,-1 1,-1 z"
         stroke="#000000"
         stroke-width="3"
         fill="#ffd9d9"
         id="path24770" />
      <path
         d="m 475.67,487.993 c 0.552,0 1,0.448 1,1 v 31.65 c 0,0.552 -0.448,1 -1,1 h -18 c -0.552,0 -1,-0.448 -1,-1 v -31.65 c 0,-0.552 0.448,-1 1,-1 z"
         stroke="#000000"
         stroke-width="3"
         fill="#e3fae3"
         id="path24772" />
      <path
         d="m 605.7,479.423 c 0.55,0 1,0.448 1,1 v 39.9 c 0,0.552 -0.45,1 -1,1 h -18 c -0.55,0 -1,-0.448 -1,-1 v -39.9 c 0,-0.552 0.45,-1 1,-1 z"
         stroke="#000000"
         stroke-width="3"
         fill="#ffd9d9"
         id="path24774" />
      <path
         d="m 1069.46,366.003 c 0,1.1 -0.9,2 -2,2 -1.1,0 -2,-0.9 -2,-2 0,-1.1 0.9,-2 2,-2 1.1,0 2,0.9 2,2 z m 8.04,0 c 0,1.1 -0.9,2 -2,2 -1.1,0 -2,-0.9 -2,-2 0,-1.1 0.9,-2 2,-2 1.1,0 2,0.9 2,2 z m 8.04,0 c 0,1.1 -0.9,2 -2,2 -1.1,0 -2,-0.9 -2,-2 0,-1.1 0.9,-2 2,-2 1.1,0 2,0.9 2,2 z m 8.04,0 c 0,1.1 -0.9,2 -2,2 -1.1,0 -2,-0.9 -2,-2 0,-1.1 0.9,-2 2,-2 1.1,0 2,0.9 2,2 z m 8.04,0 c 0,1.1 -0.9,2 -2,2 -1.1,0 -2,-0.9 -2,-2 0,-1.1 0.9,-2 2,-2 1.1,0 2,0.9 2,2 z"
         fill="#008a0e"
         id="path24776" />
      <path
         d="m 1067.5,368.003 h -2.04 v -4 h 2.05 z m 42.16,0 h -2.05 v -4 h 2.06 z"
         stroke="#008a0e"
         stroke-width="0.05"
         fill="#008a0e"
         id="path24778" />
      <path
         d="m 953.72,366.223 h 39.22"
         stroke="#1071e5"
         stroke-width="5"
         fill="none"
         id="path24780" />
      <path
         d="m 953.8,368.723 h -2.58 v -5 h 2.57 z m 41.64,0 h -2.56 v -5 h 2.56 z"
         stroke="#1071e5"
         stroke-width="0.05"
         fill="#1071e5"
         id="path24782" />
      <path
         d="m 1067.46,408.093 h 6.03 m 8.03,0 h 12.06 m 8.03,0 h 6.03"
         stroke="#e81313"
         stroke-width="4"
         fill="none"
         id="path24784" />
      <path
         d="m 1067.5,410.093 h -2.04 v -4 h 2.05 z m 42.16,0 h -2.05 v -4 h 2.06 z"
         stroke="#e81313"
         stroke-width="0.05"
         fill="#e81313"
         id="path24786" />
      <path
         d="m 166,484.273 c 0.552,0 1,0.448 1,1 v 115.37 c 0,0.552 -0.448,1 -1,1 h -18 c -0.552,0 -1,-0.448 -1,-1 v -115.37 c 0,-0.552 0.448,-1 1,-1 z m -30.06,68.92 c 0.552,0 1,0.448 1,1 v 46.45 c 0,0.552 -0.448,1 -1,1 h -18 c -0.552,0 -1,-0.448 -1,-1 v -46.45 c 0,-0.552 0.448,-1 1,-1 z"
         stroke="#000000"
         stroke-width="3"
         fill="#e3fae3"
         id="path24788" />
      <path
         d="m 216.32,596.403 c 0.552,0 1,0.448 1,1 v 3.24 c 0,0.552 -0.448,1 -1,1 h -18 c -0.552,0 -1,-0.448 -1,-1 v -3.24 c 0,-0.552 0.448,-1 1,-1 z m 120,-123.25 c 0.552,0 1,0.448 1,1 v 126.5 c 0,0.552 -0.448,1 -1,1 h -18 c -0.552,0 -1,-0.448 -1,-1 v -126.5 c 0,-0.552 0.448,-1 1,-1 z m -90,120.62 c 0.552,0 1,0.448 1,1 v 5.87 c 0,0.552 -0.448,1 -1,1 h -18 c -0.552,0 -1,-0.448 -1,-1 v -5.87 c 0,-0.552 0.448,-1 1,-1 z m 30,-14.95 c 0.552,0 1,0.448 1,1 v 20.82 c 0,0.552 -0.448,1 -1,1 h -18 c -0.552,0 -1,-0.448 -1,-1 v -20.8 c 0,-0.552 0.448,-1 1,-1 z m 30,-33.05 c 0.552,0 1,0.448 1,1 v 53.87 c 0,0.552 -0.448,1 -1,1 h -18 c -0.552,0 -1,-0.448 -1,-1 v -53.87 c 0,-0.552 0.448,-1 1,-1 z"
         stroke="#000000"
         stroke-width="3"
         fill="#ffd9d9"
         id="path24790" />
      <path
         d="m 98.85,441.753 256.65,-0.1 m -256.6,0.1 h -1.55 m 258.11,-0.11 H 357"
         stroke="#000000"
         stroke-width="3"
         fill="none"
         id="path24792" />
      <path
         d="m 99.5,521.083 255.32,0.66"
         stroke="#1071e5"
         stroke-width="5"
         fill="none"
         id="path24794" />
      <path
         d="m 99.57,518.593 v 5 H 97 v -5 z m 257.75,0.66 v 5 h -2.57 v -5 z"
         stroke="#1071e5"
         stroke-width="0.05"
         fill="#1071e5"
         id="path24796" />
      <path
         d="m 419.2,521.623 h 205"
         stroke="#1071e5"
         stroke-width="5"
         fill="none"
         id="path24798" />
      <path
         d="m 419.26,524.123 h -2.56 v -5 h 2.56 z m 207.44,0 h -2.57 v -5 h 2.56 z"
         stroke="#1071e5"
         stroke-width="0.05"
         fill="#1071e5"
         id="path24800" />
      <path
         d="m 401.745,528.433 c -1.667,-2.8 -1.849,-8.073 -0.508,-11.263 0.612,-1.459 1.406,-2.539 2.422,-3.242 2.226,-1.55 4.427,-0.886 6.068,1.223 1.341,1.719 2.018,4.024 2.018,6.954 0,3.711 -1.12,6.914 -3.138,8.346 -2.735,1.94 -5.156,0.859 -6.862,-2.018 z m 1.471,-10.3 c -0.521,3.438 -0.456,7.943 0.56,10.521 0.742,1.875 2.175,2.539 3.672,1.302 0.508,-0.417 0.898,-1.12 1.146,-2.109 0.833,-3.425 1.172,-11.576 -1.237,-13.477 -0.899,-0.703 -2.136,-0.534 -2.865,0.365 -0.599,0.742 -1.041,1.849 -1.276,3.398"
         id="path24802" />
      <path
         d="m 456.85,604.943 v 17.9"
         stroke="#000000"
         stroke-width="2"
         fill="none"
         id="path24804" />
      <path
         d="m 457.85,604.973 h -2 v -1.03 h 2 z"
         stroke="#000000"
         stroke-width="0.05"
         id="path24806" />
      <path
         d="m 456.85,638.093 -4.64,-14.26 h 9.28 z"
         stroke="#000000"
         stroke-width="2"
         id="path24808" />
      <path
         d="m 556.85,604.943 v 17.9"
         stroke="#000000"
         stroke-width="2"
         fill="none"
         id="path24810" />
      <path
         d="m 557.85,604.973 h -2 v -1.03 h 2 z"
         stroke="#000000"
         stroke-width="0.05"
         id="path24812" />
      <path
         d="m 556.85,638.093 -4.64,-14.26 h 9.28 z"
         stroke="#000000"
         stroke-width="2"
         id="path24814" />
      <path
         d="m 701.53,439.853 c 0,-4.418 3.58,-8 8,-8 h 63.7 c 4.42,0 8,3.582 8,8 v 155.14 c 0,4.418 -3.58,8 -8,8 h -63.7 c -4.42,0 -8,-3.582 -8,-8 z"
         stroke="#000000"
         stroke-width="2"
         fill="#f2f3f5"
         id="path24816" />
      <path
         d="m 736.145,669.654 c 3.509,0.119 4.13,-1.051 5.228,-3.45 l 0.393,0.084 -1.384,4.392 h -12.533 v -0.442 c 0.967,0.048 1.719,-0.071 2.077,-0.668 0.167,-0.251 0.251,-0.847 0.251,-1.767 V 657.36 c 0.083,-2.125 -0.49,-2.435 -2.328,-2.423 v -0.442 h 7.329 v 0.442 c -2.196,0.083 -2.709,0.286 -2.709,2.697 v 10.169 c 0.071,1.898 0.31,1.851 2.494,1.851 h 1.182"
         id="path24818" />
      <path
         d="m 748.271,671.014 c -2.948,0.072 -5.251,-2.757 -5.156,-5.693 0.108,-3.199 2.029,-5.813 5.288,-5.896 2.972,-0.084 5.359,2.613 5.263,5.585 -0.107,3.271 -1.993,5.921 -5.395,6.004 z M 748.033,660.2 c -3.438,0 -3.092,5.909 -1.755,8.236 0.657,1.146 1.468,1.731 2.507,1.731 0.776,0 1.408,-0.323 1.909,-0.955 0.502,-0.633 0.752,-1.731 0.752,-3.282 0,-1.946 -0.417,-3.474 -1.253,-4.584 -0.561,-0.764 -1.289,-1.146 -2.16,-1.146"
         id="path24820" />
      <path
         d="m 761.401,659.878 c 0.37,0 0.37,-0.143 0.549,-0.453 h 0.394 v 3.723 h -0.394 c -0.298,-1.169 -0.68,-1.969 -1.158,-2.387 -0.477,-0.417 -1.086,-0.632 -1.814,-0.632 -0.955,0 -1.862,0.608 -1.862,1.42 0,1.337 0.68,1.599 1.886,2.184 l 1.742,0.848 c 1.612,0.788 2.423,1.826 2.423,3.115 0,1.91 -1.838,3.318 -3.652,3.318 -0.8,0 -2.005,-0.477 -2.936,-0.477 -0.179,0 -0.322,0.107 -0.43,0.31 h -0.394 v -3.903 h 0.394 c 0.322,1.874 1.492,3.27 3.39,3.366 1.003,0.036 1.874,-0.704 1.862,-1.647 0,-0.549 -0.203,-1.015 -0.585,-1.385 -0.382,-0.37 -1.146,-0.847 -2.304,-1.42 -1.157,-0.573 -1.909,-1.086 -2.267,-1.552 -0.358,-0.453 -0.537,-1.026 -0.537,-1.718 -0.024,-1.803 1.456,-3.163 3.318,-3.163 0.537,0 1.826,0.453 2.375,0.453"
         id="path24822" />
      <path
         d="m 770.914,659.878 c 0.37,0 0.37,-0.143 0.549,-0.453 h 0.394 v 3.723 h -0.394 c -0.299,-1.169 -0.681,-1.969 -1.158,-2.387 -0.478,-0.417 -1.086,-0.632 -1.814,-0.632 -0.955,0 -1.862,0.608 -1.862,1.42 0,1.337 0.68,1.599 1.886,2.184 l 1.742,0.848 c 1.611,0.788 2.423,1.826 2.423,3.115 0,1.91 -1.838,3.318 -3.652,3.318 -0.8,0 -2.005,-0.477 -2.936,-0.477 -0.179,0 -0.323,0.107 -0.43,0.31 h -0.394 v -3.903 h 0.394 c 0.322,1.874 1.492,3.27 3.39,3.366 1.002,0.036 1.874,-0.704 1.862,-1.647 0,-0.549 -0.203,-1.015 -0.585,-1.385 -0.382,-0.37 -1.146,-0.847 -2.304,-1.42 -1.158,-0.573 -1.91,-1.086 -2.268,-1.552 -0.358,-0.453 -0.537,-1.026 -0.537,-1.718 -0.024,-1.803 1.456,-3.163 3.318,-3.163 0.538,0 1.827,0.453 2.376,0.453"
         id="path24824" />
      <path
         d="m 783.446,673.378 c -0.036,1.766 0.226,2.041 1.85,2.088 v 0.442 h -5.73 v -0.442 c 0.812,0.024 1.528,-0.083 1.779,-0.68 0.083,-0.191 0.119,-0.68 0.119,-1.48 v -10.337 c -0.036,-1.11 0.036,-1.372 -0.406,-1.778 -0.381,-0.215 -0.799,-0.167 -1.289,0.024 l -0.143,-0.382 3.366,-1.361 h 0.454 v 2.555 c 0.561,-0.967 1.122,-1.636 1.695,-2.018 0.572,-0.382 1.169,-0.584 1.802,-0.584 2.638,0.035 4.094,2.637 4.094,5.395 0,3.162 -1.862,6.23 -4.989,6.194 -1.289,-0.012 -1.839,-0.274 -2.602,-0.967 z M 786,661.155 c -1.397,0 -1.444,0.478 -2.554,1.576 0.035,1.778 -0.156,4.321 0.107,5.824 0.167,0.943 1.218,1.743 2.459,1.743 0.8,0 1.42,-0.334 1.933,-0.931 1.361,-1.564 1.206,-5.825 -0.131,-7.281 -0.537,-0.597 -1.11,-0.931 -1.814,-0.931"
         id="path24826" />
      <path
         d="m 792.779,665.357 c 0,-3.402 1.934,-5.909 5.049,-5.944 2.483,-0.024 4.273,1.873 4.202,4.452 h -7.556 c -0.131,2.817 1.552,5.204 3.987,5.204 1.838,0 2.578,-1.015 3.199,-2.614 l 0.37,0.238 c -0.287,2.041 -2.065,4.381 -4.476,4.321 -2.817,-0.071 -4.775,-2.542 -4.775,-5.657 z m 1.695,-2.185 h 5.061 c -0.06,-1.444 -0.334,-1.981 -1.146,-2.53 -1.002,-0.692 -2.196,-0.43 -3.008,0.394 -0.525,0.513 -0.823,1.217 -0.907,2.136"
         id="path24828" />
      <path
         d="m 802.996,670.25 c 1.409,-0.071 1.779,-0.37 1.719,-2.029 -0.06,-1.814 0.072,-5.049 -0.083,-6.517 -0.084,-0.776 -0.931,-0.823 -1.636,-0.513 l -0.119,-0.43 3.306,-1.336 h 0.502 v 2.458 c 0.919,-1.635 1.85,-2.458 2.816,-2.458 0.788,0 1.516,0.596 1.516,1.324 0,0.585 -0.477,1.122 -1.05,1.11 -0.454,0.12 -1.349,-0.823 -1.707,-0.823 -0.143,0 -0.298,0.083 -0.466,0.239 -0.358,0.322 -0.728,0.859 -1.109,1.611 v 5.24 c -0.024,1.492 0.441,2.112 1.909,2.124 v 0.43 h -5.598 v -0.43"
         id="path24830" />
      <path
         d="m 821.05,670.859 c -1.54,0 -2.101,-1.062 -2.101,-2.924 v -7.353 h -1.73 v -0.394 c 1.026,-0.429 1.969,-1.396 2.566,-2.375 0.179,-0.298 0.442,-0.859 0.764,-1.659 h 0.37 v 3.593 h 2.554 v 0.835 h -2.554 v 7.09 c 0,1.158 0.203,1.802 1.086,1.802 0.644,0 1.134,-0.429 1.337,-0.966 h 0.465 c -0.429,1.277 -1.349,2.351 -2.757,2.351"
         id="path24832" />
      <path
         d="m 832.019,670.895 c -0.955,0 -1.289,-0.669 -1.289,-1.791 -1.122,0.872 -1.826,1.373 -2.113,1.504 -1.969,0.943 -4.106,-0.394 -3.974,-2.518 0.095,-1.623 0.835,-2.137 2.065,-2.912 0.787,-0.502 2.148,-1.063 4.022,-1.743 0.048,-2.041 -0.275,-3.235 -2.029,-3.282 -0.883,-0.024 -1.647,0.573 -1.647,1.336 0,0.979 -0.084,1.839 -0.991,1.839 -0.621,0 -1.038,-0.502 -1.003,-1.158 0.096,-1.671 1.91,-2.817 3.999,-2.745 1.695,0.059 3.02,0.393 3.426,1.647 0.549,1.707 0.035,5.657 0.274,7.722 0.048,0.382 0.179,0.561 0.513,0.597 0.621,-0.096 0.597,-0.358 1.301,-0.955 v 0.668 c -0.895,1.194 -1.742,1.791 -2.554,1.791 z m -4.965,-4.619 c -0.931,1.193 -0.143,3.27 1.289,3.246 0.609,0 1.396,-0.394 2.387,-1.193 v -4.166 c -1.206,0.478 -1.981,0.812 -2.327,1.015 -0.633,0.346 -1.063,0.728 -1.349,1.098"
         id="path24834" />
      <path
         d="m 834.896,670.25 c 1.408,-0.071 1.778,-0.37 1.718,-2.029 -0.059,-1.814 0.072,-5.049 -0.083,-6.517 -0.084,-0.776 -0.931,-0.823 -1.635,-0.513 l -0.12,-0.43 3.306,-1.336 h 0.502 v 2.458 c 0.919,-1.635 1.85,-2.458 2.817,-2.458 0.787,0 1.516,0.596 1.516,1.324 0,0.585 -0.478,1.122 -1.051,1.11 -0.453,0.12 -1.349,-0.823 -1.707,-0.823 -0.143,0 -0.298,0.083 -0.465,0.239 -0.358,0.322 -0.728,0.859 -1.11,1.611 v 5.24 c -0.024,1.492 0.441,2.112 1.91,2.124 v 0.43 h -5.598 v -0.43"
         id="path24836" />
      <path
         d="m 845.232,670.585 c -0.633,-0.43 -1.134,-0.562 -1.134,-1.325 0,-0.275 0.119,-0.609 0.346,-0.979 0.227,-0.37 0.74,-0.907 1.564,-1.588 -1.182,-0.549 -2.053,-1.706 -2.077,-3.306 -0.024,-2.22 2.005,-3.962 4.356,-3.962 1.039,0 1.946,0.25 2.71,0.763 h 2.315 c 0.693,0 0.788,-0.035 0.788,0.514 0,0.596 -0.095,0.561 -0.788,0.561 h -1.42 c 0.442,0.573 0.668,1.301 0.668,2.196 0.012,2.733 -3.007,4.392 -5.967,3.461 -0.514,0.466 -0.8,0.74 -0.896,1.373 0.084,0.441 0.382,0.597 0.967,0.668 0.872,0.108 4.584,0.132 4.858,0.251 1.337,0.155 2.423,1.05 2.435,2.471 0,0.895 -0.418,1.742 -1.265,2.53 -1.242,1.158 -2.865,1.743 -4.858,1.743 -1.54,0 -2.817,-0.358 -3.891,-1.039 -1.444,-0.907 -0.86,-1.993 0.071,-3.043 0.06,-0.072 0.466,-0.502 1.218,-1.289 z m 3.163,-4.011 c 1.432,0 2.077,-1.134 2.077,-2.817 0,-1.265 -0.275,-2.256 -0.824,-2.972 -0.406,-0.525 -0.931,-0.788 -1.563,-0.788 -1.397,0 -2.077,1.206 -2.077,2.865 0,1.253 0.274,2.232 0.811,2.924 0.418,0.525 0.943,0.788 1.576,0.788 z m -2.507,4.106 c -0.752,0.788 -1.79,2.208 -0.441,3.103 1.325,0.872 5.371,1.003 6.612,-0.024 0.657,-0.537 1.027,-1.038 1.027,-1.611 0,-0.418 -0.203,-0.728 -0.609,-0.883 -1.194,-0.466 -5.479,-0.299 -6.589,-0.585"
         id="path24838" />
      <path
         d="m 855.449,665.357 c 0,-3.402 1.934,-5.909 5.049,-5.944 2.482,-0.024 4.273,1.873 4.201,4.452 h -7.555 c -0.131,2.817 1.551,5.204 3.986,5.204 1.839,0 2.578,-1.015 3.199,-2.614 l 0.37,0.238 c -0.286,2.041 -2.065,4.381 -4.476,4.321 -2.817,-0.071 -4.774,-2.542 -4.774,-5.657 z m 1.695,-2.185 h 5.061 c -0.06,-1.444 -0.335,-1.981 -1.146,-2.53 -1.003,-0.692 -2.196,-0.43 -3.008,0.394 -0.525,0.513 -0.824,1.217 -0.907,2.136"
         id="path24840" />
      <path
         d="m 869.462,670.859 c -1.54,0 -2.101,-1.062 -2.101,-2.924 v -7.353 h -1.731 v -0.394 c 1.027,-0.429 1.97,-1.396 2.566,-2.375 0.179,-0.298 0.442,-0.859 0.764,-1.659 h 0.37 v 3.593 h 2.555 v 0.835 h -2.555 v 7.09 c 0,1.158 0.203,1.802 1.086,1.802 0.645,0 1.134,-0.429 1.337,-0.966 h 0.466 c -0.43,1.277 -1.349,2.351 -2.757,2.351"
         id="path24842" />
      <path
         d="m 885.177,659.878 c 0.37,0 0.37,-0.143 0.549,-0.453 h 0.394 v 3.723 h -0.394 c -0.298,-1.169 -0.68,-1.969 -1.158,-2.387 -0.477,-0.417 -1.086,-0.632 -1.814,-0.632 -0.955,0 -1.862,0.608 -1.862,1.42 0,1.337 0.68,1.599 1.886,2.184 l 1.742,0.848 c 1.612,0.788 2.423,1.826 2.423,3.115 0,1.91 -1.838,3.318 -3.652,3.318 -0.8,0 -2.005,-0.477 -2.936,-0.477 -0.179,0 -0.322,0.107 -0.43,0.31 h -0.394 v -3.903 h 0.394 c 0.322,1.874 1.492,3.27 3.39,3.366 1.003,0.036 1.874,-0.704 1.862,-1.647 0,-0.549 -0.203,-1.015 -0.585,-1.385 -0.382,-0.37 -1.146,-0.847 -2.304,-1.42 -1.157,-0.573 -1.909,-1.086 -2.267,-1.552 -0.358,-0.453 -0.537,-1.026 -0.537,-1.718 -0.024,-1.803 1.456,-3.163 3.318,-3.163 0.537,0 1.826,0.453 2.375,0.453"
         id="path24844" />
      <path
         d="m 888.71,665.357 c 0,-3.402 1.933,-5.909 5.049,-5.944 2.482,-0.024 4.273,1.873 4.201,4.452 h -7.555 c -0.132,2.817 1.551,5.204 3.986,5.204 1.838,0 2.578,-1.015 3.199,-2.614 l 0.37,0.238 c -0.286,2.041 -2.065,4.381 -4.476,4.321 -2.817,-0.071 -4.774,-2.542 -4.774,-5.657 z m 1.695,-2.185 h 5.061 c -0.06,-1.444 -0.335,-1.981 -1.146,-2.53 -1.003,-0.692 -2.196,-0.43 -3.008,0.394 -0.525,0.513 -0.824,1.217 -0.907,2.136"
         id="path24846" />
      <path
         d="m 902.723,670.859 c -1.54,0 -2.101,-1.062 -2.101,-2.924 v -7.353 h -1.731 v -0.394 c 1.027,-0.429 1.97,-1.396 2.566,-2.375 0.179,-0.298 0.442,-0.859 0.764,-1.659 h 0.37 v 3.593 h 2.555 v 0.835 h -2.555 v 7.09 c 0,1.158 0.203,1.802 1.086,1.802 0.645,0 1.134,-0.429 1.337,-0.966 h 0.466 c -0.43,1.277 -1.349,2.351 -2.757,2.351"
         id="path24848" />
      <path
         d="m 870.22,521.693 c 0.55,0 1,0.448 1,1 v 6.63 c 0,0.552 -0.45,1 -1,1 h -18 c -0.55,0 -1,-0.448 -1,-1 v -6.63 c 0,-0.552 0.45,-1 1,-1 z"
         stroke="#000000"
         stroke-width="3"
         fill="#ffd9d9"
         id="path24850" />
      <path
         d="m 740.5,521.693 c 0.55,0 1,0.448 1,1 v 18.96 c 0,0.552 -0.45,1 -1,1 h -18 c -0.55,0 -1,-0.448 -1,-1 v -18.96 c 0,-0.552 0.45,-1 1,-1 z"
         stroke="#000000"
         stroke-width="3"
         fill="#e3fae3"
         id="path24852" />
      <path
         d="m 830.22,521.693 c 0.55,0 1,0.448 1,1 v 32.85 c 0,0.552 -0.45,1 -1,1 h -18 c -0.55,0 -1,-0.448 -1,-1 v -32.85 c 0,-0.552 0.45,-1 1,-1 z m 20,0 c 0.55,0 1,0.448 1,1 v 28.28 c 0,0.552 -0.45,1 -1,1 h -18 c -0.55,0 -1,-0.448 -1,-1 v -28.28 c 0,-0.552 0.45,-1 1,-1 z"
         stroke="#000000"
         stroke-width="3"
         fill="#796464"
         id="path24854" />
      <path
         d="m 890.16,508.173 c 0.55,0 1,0.448 1,1 v 11.16 c 0,0.552 -0.45,1 -1,1 h -18 c -0.55,0 -1,-0.448 -1,-1 v -11.15 c 0,-0.552 0.45,-1 1,-1 z"
         stroke="#000000"
         stroke-width="3"
         fill="#ffd9d9"
         id="path24856" />
      <path
         d="m 760.5,488.043 c 0.55,0 1,0.448 1,1 v 31.65 c 0,0.552 -0.45,1 -1,1 h -18 c -0.55,0 -1,-0.448 -1,-1 v -31.65 c 0,-0.552 0.45,-1 1,-1 z"
         stroke="#000000"
         stroke-width="3"
         fill="#e3fae3"
         id="path24858" />
      <path
         d="M 690.96,521.673 H 939.72"
         stroke="#000000"
         stroke-width="3"
         fill="none"
         id="path24860" />
      <path
         d="m 691,523.173 h -1.54 v -3 H 691 Z m 250.22,0 h -1.54 v -3 h 1.54 z"
         stroke="#000000"
         stroke-width="0.05"
         id="path24862" />
      <path
         d="m 671.873,529.681 c -1.667,-2.8 -1.849,-8.073 -0.508,-11.263 0.612,-1.459 1.406,-2.539 2.422,-3.242 2.226,-1.55 4.427,-0.886 6.068,1.223 1.341,1.719 2.018,4.024 2.018,6.954 0,3.711 -1.12,6.914 -3.138,8.346 -2.735,1.94 -5.157,0.859 -6.862,-2.018 z m 1.471,-10.3 c -0.521,3.438 -0.456,7.943 0.56,10.521 0.742,1.875 2.174,2.539 3.672,1.302 0.508,-0.417 0.898,-1.12 1.146,-2.109 0.833,-3.425 1.172,-11.576 -1.237,-13.477 -0.899,-0.703 -2.136,-0.534 -2.865,0.365 -0.599,0.742 -1.042,1.849 -1.276,3.398"
         id="path24864" />
      <path
         d="m 741.37,604.993 v 18.46"
         stroke="#000000"
         stroke-width="2"
         fill="none"
         id="path24866" />
      <path
         d="m 742.37,605.023 h -2 v -1.03 h 2 z"
         stroke="#000000"
         stroke-width="0.05"
         id="path24868" />
      <path
         d="m 741.37,638.723 -4.63,-14.26 h 9.27 z"
         stroke="#000000"
         stroke-width="2"
         id="path24870" />
      <path
         d="m 861.37,604.993 v 18.46"
         stroke="#000000"
         stroke-width="2"
         fill="none"
         id="path24872" />
      <path
         d="m 862.37,605.023 h -2 v -1.03 h 2 z"
         stroke="#000000"
         stroke-width="0.05"
         id="path24874" />
      <path
         d="m 861.37,638.723 -4.63,-14.26 h 9.27 z"
         stroke="#000000"
         stroke-width="2"
         id="path24876" />
      <path
         d="m 705.22,475.223 c 0,1.1 -0.9,2 -2,2 -1.1,0 -2,-0.9 -2,-2 0,-1.1 0.9,-2 2,-2 1.1,0 2,0.9 2,2 z m 7.6,0 c 0,1.1 -0.9,2 -2,2 -1.1,0 -2,-0.9 -2,-2 0,-1.1 0.9,-2 2,-2 1.1,0 2,0.9 2,2 z m 7.6,0 c 0,1.1 -0.9,2 -2,2 -1.1,0 -2,-0.9 -2,-2 0,-1.1 0.9,-2 2,-2 1.1,0 2,0.9 2,2 z m 7.6,0 c 0,1.1 -0.9,2 -2,2 -1.1,0 -2,-0.9 -2,-2 0,-1.1 0.9,-2 2,-2 1.1,0 2,0.9 2,2 z m 7.6,0 c 0,1.1 -0.9,2 -2,2 -1.1,0 -2,-0.9 -2,-2 0,-1.1 0.9,-2 2,-2 1.1,0 2,0.9 2,2 z m 7.6,0 c 0,1.1 -0.9,2 -2,2 -1.1,0 -2,-0.9 -2,-2 0,-1.1 0.9,-2 2,-2 1.1,0 2,0.9 2,2 z m 7.6,0 c 0,1.1 -0.9,2 -2,2 -1.1,0 -2,-0.9 -2,-2 0,-1.1 0.9,-2 2,-2 1.1,0 2,0.9 2,2 z m 7.6,0 c 0,1.1 -0.9,2 -2,2 -1.1,0 -2,-0.9 -2,-2 0,-1.1 0.9,-2 2,-2 1.1,0 2,0.9 2,2 z m 7.6,0 c 0,1.1 -0.9,2 -2,2 -1.1,0 -2,-0.9 -2,-2 0,-1.1 0.9,-2 2,-2 1.1,0 2,0.9 2,2 z m 7.6,0 c 0,1.1 -0.9,2 -2,2 -1.1,0 -2,-0.9 -2,-2 0,-1.1 0.9,-2 2,-2 1.1,0 2,0.9 2,2 z m 7.6,0 c 0,1.1 -0.9,2 -2,2 -1.1,0 -2,-0.9 -2,-2 0,-1.1 0.9,-2 2,-2 1.1,0 2,0.9 2,2 z"
         fill="#008a0e"
         id="path24878" />
      <path
         d="m 703.27,473.223 v 4 h -2.05 v -4 z m 77.95,0 v 4 h -2.05 v -4 z"
         stroke="#008a0e"
         stroke-width="0.05"
         fill="#008a0e"
         id="path24880" />
      <path
         d="m 794.5,516.163 h -2.06 v -4 h 2.05 z m 135.76,0 h -2.05 v -4 h 2.06 z"
         stroke="#e81313"
         stroke-width="0.05"
         fill="#e81313"
         id="path24884" />
      <path
         d="m 910.22,479.773 c 0.55,0 1,0.448 1,1 v 39.92 c 0,0.552 -0.45,1 -1,1 h -18 c -0.55,0 -1,-0.448 -1,-1 v -39.92 c 0,-0.552 0.45,-1 1,-1 z"
         stroke="#000000"
         stroke-width="3"
         fill="#ffd9d9"
         id="path24886" />
      <path
         d="m 1062.03,495.423 c 0,-4.418 3.58,-8 8,-8 h 123.7 c 4.42,0 8,3.582 8,8 v 99.57 c 0,4.418 -3.58,8 -8,8 h -123.7 c -4.42,0 -8,-3.582 -8,-8 z m -90,0 c 0,-4.418 3.58,-8 8,-8 h 63.7 c 4.42,0 8,3.582 8,8 v 99.57 c 0,4.418 -3.58,8 -8,8 h -63.7 c -4.42,0 -8,-3.582 -8,-8 z"
         stroke="#000000"
         stroke-width="2"
         fill="#f2f3f5"
         id="path24888" />
      <path
         d="m 1006.64,669.654 c 3.51,0.119 4.13,-1.051 5.23,-3.45 l 0.4,0.084 -1.39,4.392 h -12.531 v -0.442 c 0.967,0.048 1.721,-0.071 2.081,-0.668 0.16,-0.251 0.25,-0.847 0.25,-1.767 V 657.36 c 0.08,-2.125 -0.49,-2.435 -2.331,-2.423 v -0.442 h 7.331 v 0.442 c -2.2,0.083 -2.71,0.286 -2.71,2.697 v 10.169 c 0.07,1.898 0.31,1.851 2.49,1.851 h 1.18"
         id="path24890" />
      <path
         d="m 1018.77,671.014 c -2.95,0.072 -5.25,-2.757 -5.15,-5.693 0.1,-3.199 2.02,-5.813 5.28,-5.896 2.97,-0.084 5.36,2.613 5.27,5.585 -0.11,3.271 -2,5.921 -5.4,6.004 z m -0.24,-10.814 c -3.43,0 -3.09,5.909 -1.75,8.236 0.65,1.146 1.47,1.731 2.5,1.731 0.78,0 1.41,-0.323 1.91,-0.955 0.51,-0.633 0.76,-1.731 0.76,-3.282 0,-1.946 -0.42,-3.474 -1.26,-4.584 -0.56,-0.764 -1.29,-1.146 -2.16,-1.146"
         id="path24892" />
      <path
         d="m 1031.9,659.878 c 0.37,0 0.37,-0.143 0.55,-0.453 h 0.39 v 3.723 h -0.39 c -0.3,-1.169 -0.68,-1.969 -1.16,-2.387 -0.48,-0.417 -1.08,-0.632 -1.81,-0.632 -0.96,0 -1.86,0.608 -1.86,1.42 0,1.337 0.68,1.599 1.88,2.184 l 1.74,0.848 c 1.62,0.788 2.43,1.826 2.43,3.115 0,1.91 -1.84,3.318 -3.65,3.318 -0.8,0 -2.01,-0.477 -2.94,-0.477 -0.18,0 -0.32,0.107 -0.43,0.31 h -0.39 v -3.903 h 0.39 c 0.32,1.874 1.49,3.27 3.39,3.366 1,0.036 1.87,-0.704 1.86,-1.647 0,-0.549 -0.2,-1.015 -0.58,-1.385 -0.39,-0.37 -1.15,-0.847 -2.31,-1.42 -1.16,-0.573 -1.91,-1.086 -2.27,-1.552 -0.35,-0.453 -0.53,-1.026 -0.53,-1.718 -0.03,-1.803 1.45,-3.163 3.32,-3.163 0.53,0 1.82,0.453 2.37,0.453"
         id="path24894" />
      <path
         d="m 1041.41,659.878 c 0.37,0 0.37,-0.143 0.55,-0.453 h 0.4 v 3.723 h -0.4 c -0.3,-1.169 -0.68,-1.969 -1.16,-2.387 -0.47,-0.417 -1.08,-0.632 -1.81,-0.632 -0.95,0 -1.86,0.608 -1.86,1.42 0,1.337 0.68,1.599 1.88,2.184 l 1.75,0.848 c 1.61,0.788 2.42,1.826 2.42,3.115 0,1.91 -1.84,3.318 -3.65,3.318 -0.8,0 -2.01,-0.477 -2.94,-0.477 -0.18,0 -0.32,0.107 -0.43,0.31 h -0.39 v -3.903 h 0.39 c 0.32,1.874 1.49,3.27 3.39,3.366 1,0.036 1.88,-0.704 1.86,-1.647 0,-0.549 -0.2,-1.015 -0.58,-1.385 -0.38,-0.37 -1.15,-0.847 -2.3,-1.42 -1.16,-0.573 -1.91,-1.086 -2.27,-1.552 -0.36,-0.453 -0.54,-1.026 -0.54,-1.718 -0.02,-1.803 1.46,-3.163 3.32,-3.163 0.54,0 1.82,0.453 2.37,0.453"
         id="path24896" />
      <path
         d="m 1053.95,673.378 c -0.04,1.766 0.22,2.041 1.85,2.088 v 0.442 h -5.73 v -0.442 c 0.81,0.024 1.52,-0.083 1.77,-0.68 0.09,-0.191 0.12,-0.68 0.12,-1.48 v -10.337 c -0.03,-1.11 0.04,-1.372 -0.4,-1.778 -0.38,-0.215 -0.8,-0.167 -1.29,0.024 l -0.14,-0.382 3.36,-1.361 h 0.46 v 2.555 c 0.56,-0.967 1.12,-1.636 1.69,-2.018 0.57,-0.382 1.17,-0.584 1.8,-0.584 2.64,0.035 4.1,2.637 4.1,5.395 0,3.162 -1.87,6.23 -4.99,6.194 -1.29,-0.012 -1.84,-0.274 -2.6,-0.967 z m 2.55,-12.223 c -1.4,0 -1.44,0.478 -2.55,1.576 0.03,1.778 -0.16,4.321 0.1,5.824 0.17,0.943 1.22,1.743 2.46,1.743 0.8,0 1.42,-0.334 1.94,-0.931 1.36,-1.564 1.2,-5.825 -0.14,-7.281 -0.53,-0.597 -1.11,-0.931 -1.81,-0.931"
         id="path24898" />
      <path
         d="m 1063.28,665.357 c 0,-3.402 1.93,-5.909 5.05,-5.944 2.48,-0.024 4.27,1.873 4.2,4.452 h -7.56 c -0.13,2.817 1.56,5.204 3.99,5.204 1.84,0 2.58,-1.015 3.2,-2.614 l 0.37,0.238 c -0.29,2.041 -2.07,4.381 -4.48,4.321 -2.81,-0.071 -4.77,-2.542 -4.77,-5.657 z m 1.69,-2.185 h 5.07 c -0.06,-1.444 -0.34,-1.981 -1.15,-2.53 -1,-0.692 -2.2,-0.43 -3.01,0.394 -0.52,0.513 -0.82,1.217 -0.91,2.136"
         id="path24900" />
      <path
         d="m 1073.5,670.25 c 1.4,-0.071 1.77,-0.37 1.72,-2.029 -0.06,-1.814 0.07,-5.049 -0.09,-6.517 -0.08,-0.776 -0.93,-0.823 -1.63,-0.513 l -0.12,-0.43 3.3,-1.336 h 0.5 v 2.458 c 0.92,-1.635 1.85,-2.458 2.82,-2.458 0.79,0 1.52,0.596 1.52,1.324 0,0.585 -0.48,1.122 -1.05,1.11 -0.46,0.12 -1.35,-0.823 -1.71,-0.823 -0.14,0 -0.3,0.083 -0.47,0.239 -0.35,0.322 -0.72,0.859 -1.11,1.611 v 5.24 c -0.02,1.492 0.45,2.112 1.91,2.124 v 0.43 h -5.59 v -0.43"
         id="path24902" />
      <path
         d="m 1091.55,670.859 c -1.54,0 -2.1,-1.062 -2.1,-2.924 v -7.353 h -1.73 v -0.394 c 1.03,-0.429 1.97,-1.396 2.56,-2.375 0.18,-0.298 0.45,-0.859 0.77,-1.659 h 0.37 v 3.593 h 2.55 v 0.835 h -2.55 v 7.09 c 0,1.158 0.2,1.802 1.09,1.802 0.64,0 1.13,-0.429 1.33,-0.966 h 0.47 c -0.43,1.277 -1.35,2.351 -2.76,2.351"
         id="path24904" />
      <path
         d="m 1102.52,670.895 c -0.96,0 -1.29,-0.669 -1.29,-1.791 -1.12,0.872 -1.83,1.373 -2.11,1.504 -1.97,0.943 -4.11,-0.394 -3.98,-2.518 0.1,-1.623 0.84,-2.137 2.07,-2.912 0.79,-0.502 2.15,-1.063 4.02,-1.743 0.05,-2.041 -0.27,-3.235 -2.03,-3.282 -0.88,-0.024 -1.65,0.573 -1.65,1.336 0,0.979 -0.08,1.839 -0.99,1.839 -0.62,0 -1.04,-0.502 -1,-1.158 0.1,-1.671 1.91,-2.817 4,-2.745 1.69,0.059 3.02,0.393 3.42,1.647 0.55,1.707 0.04,5.657 0.28,7.722 0.05,0.382 0.18,0.561 0.51,0.597 0.62,-0.096 0.6,-0.358 1.3,-0.955 v 0.668 c -0.89,1.194 -1.74,1.791 -2.55,1.791 z m -4.97,-4.619 c -0.93,1.193 -0.14,3.27 1.29,3.246 0.61,0 1.4,-0.394 2.39,-1.193 v -4.166 c -1.21,0.478 -1.98,0.812 -2.33,1.015 -0.63,0.346 -1.06,0.728 -1.35,1.098"
         id="path24906" />
      <path
         d="m 1105.4,670.25 c 1.4,-0.071 1.77,-0.37 1.71,-2.029 -0.06,-1.814 0.08,-5.049 -0.08,-6.517 -0.08,-0.776 -0.93,-0.823 -1.63,-0.513 l -0.12,-0.43 3.3,-1.336 h 0.5 v 2.458 c 0.92,-1.635 1.85,-2.458 2.82,-2.458 0.79,0 1.52,0.596 1.52,1.324 0,0.585 -0.48,1.122 -1.05,1.11 -0.46,0.12 -1.35,-0.823 -1.71,-0.823 -0.14,0 -0.3,0.083 -0.47,0.239 -0.35,0.322 -0.72,0.859 -1.11,1.611 v 5.24 c -0.02,1.492 0.45,2.112 1.91,2.124 v 0.43 h -5.59 v -0.43"
         id="path24908" />
      <path
         d="m 1115.73,670.585 c -0.63,-0.43 -1.13,-0.562 -1.13,-1.325 0,-0.275 0.12,-0.609 0.34,-0.979 0.23,-0.37 0.74,-0.907 1.57,-1.588 -1.18,-0.549 -2.06,-1.706 -2.08,-3.306 -0.02,-2.22 2.01,-3.962 4.36,-3.962 1.04,0 1.94,0.25 2.71,0.763 h 2.31 c 0.69,0 0.79,-0.035 0.79,0.514 0,0.596 -0.1,0.561 -0.79,0.561 h -1.42 c 0.44,0.573 0.67,1.301 0.67,2.196 0.01,2.733 -3.01,4.392 -5.97,3.461 -0.51,0.466 -0.8,0.74 -0.89,1.373 0.08,0.441 0.38,0.597 0.96,0.668 0.88,0.108 4.59,0.132 4.86,0.251 1.34,0.155 2.43,1.05 2.44,2.471 0,0.895 -0.42,1.742 -1.27,2.53 -1.24,1.158 -2.86,1.743 -4.86,1.743 -1.54,0 -2.81,-0.358 -3.89,-1.039 -1.44,-0.907 -0.86,-1.993 0.07,-3.043 0.06,-0.072 0.47,-0.502 1.22,-1.289 z m 3.16,-4.011 c 1.44,0 2.08,-1.134 2.08,-2.817 0,-1.265 -0.27,-2.256 -0.82,-2.972 -0.41,-0.525 -0.93,-0.788 -1.57,-0.788 -1.39,0 -2.07,1.206 -2.07,2.865 0,1.253 0.27,2.232 0.81,2.924 0.42,0.525 0.94,0.788 1.57,0.788 z m -2.5,4.106 c -0.75,0.788 -1.79,2.208 -0.44,3.103 1.32,0.872 5.37,1.003 6.61,-0.024 0.66,-0.537 1.03,-1.038 1.03,-1.611 0,-0.418 -0.21,-0.728 -0.61,-0.883 -1.2,-0.466 -5.48,-0.299 -6.59,-0.585"
         id="path24910" />
      <path
         d="m 1125.95,665.357 c 0,-3.402 1.93,-5.909 5.05,-5.944 2.48,-0.024 4.27,1.873 4.2,4.452 h -7.56 c -0.13,2.817 1.56,5.204 3.99,5.204 1.84,0 2.58,-1.015 3.2,-2.614 l 0.37,0.238 c -0.29,2.041 -2.07,4.381 -4.48,4.321 -2.81,-0.071 -4.77,-2.542 -4.77,-5.657 z m 1.69,-2.185 h 5.06 c -0.06,-1.444 -0.33,-1.981 -1.14,-2.53 -1,-0.692 -2.2,-0.43 -3.01,0.394 -0.52,0.513 -0.82,1.217 -0.91,2.136"
         id="path24912" />
      <path
         d="m 1139.96,670.859 c -1.54,0 -2.1,-1.062 -2.1,-2.924 v -7.353 h -1.73 v -0.394 c 1.03,-0.429 1.97,-1.396 2.57,-2.375 0.18,-0.298 0.44,-0.859 0.76,-1.659 h 0.37 v 3.593 h 2.55 v 0.835 h -2.55 v 7.09 c 0,1.158 0.2,1.802 1.09,1.802 0.64,0 1.13,-0.429 1.33,-0.966 h 0.47 c -0.43,1.277 -1.35,2.351 -2.76,2.351"
         id="path24914" />
      <path
         d="m 1155.68,659.878 c 0.37,0 0.37,-0.143 0.55,-0.453 h 0.39 v 3.723 h -0.39 c -0.3,-1.169 -0.68,-1.969 -1.16,-2.387 -0.48,-0.417 -1.09,-0.632 -1.82,-0.632 -0.95,0 -1.86,0.608 -1.86,1.42 0,1.337 0.68,1.599 1.89,2.184 l 1.74,0.848 c 1.61,0.788 2.42,1.826 2.42,3.115 0,1.91 -1.83,3.318 -3.65,3.318 -0.8,0 -2,-0.477 -2.94,-0.477 -0.17,0 -0.32,0.107 -0.42,0.31 h -0.4 v -3.903 h 0.4 c 0.32,1.874 1.49,3.27 3.39,3.366 1,0.036 1.87,-0.704 1.86,-1.647 0,-0.549 -0.21,-1.015 -0.59,-1.385 -0.38,-0.37 -1.14,-0.847 -2.3,-1.42 -1.16,-0.573 -1.91,-1.086 -2.27,-1.552 -0.36,-0.453 -0.54,-1.026 -0.54,-1.718 -0.02,-1.803 1.46,-3.163 3.32,-3.163 0.54,0 1.83,0.453 2.38,0.453"
         id="path24916" />
      <path
         d="m 1159.21,665.357 c 0,-3.402 1.93,-5.909 5.05,-5.944 2.48,-0.024 4.27,1.873 4.2,4.452 h -7.56 c -0.13,2.817 1.56,5.204 3.99,5.204 1.84,0 2.58,-1.015 3.2,-2.614 l 0.37,0.238 c -0.29,2.041 -2.06,4.381 -4.48,4.321 -2.81,-0.071 -4.77,-2.542 -4.77,-5.657 z m 1.69,-2.185 h 5.07 c -0.06,-1.444 -0.34,-1.981 -1.15,-2.53 -1,-0.692 -2.2,-0.43 -3.01,0.394 -0.52,0.513 -0.82,1.217 -0.91,2.136"
         id="path24918" />
      <path
         d="m 1173.22,670.859 c -1.54,0 -2.1,-1.062 -2.1,-2.924 v -7.353 h -1.73 v -0.394 c 1.03,-0.429 1.97,-1.396 2.57,-2.375 0.18,-0.298 0.44,-0.859 0.76,-1.659 h 0.37 v 3.593 h 2.56 v 0.835 h -2.56 v 7.09 c 0,1.158 0.2,1.802 1.09,1.802 0.64,0 1.13,-0.429 1.33,-0.966 h 0.47 c -0.43,1.277 -1.35,2.351 -2.76,2.351"
         id="path24920" />
      <path
         d="m 1140.72,521.693 c 0.55,0 1,0.448 1,1 v 60.8 c 0,0.552 -0.45,1 -1,1 h -18 c -0.55,0 -1,-0.448 -1,-1 v -60.8 c 0,-0.552 0.45,-1 1,-1 z"
         stroke="#000000"
         stroke-width="3"
         fill="#796464"
         id="path24922" />
      <path
         d="m 1011,506.623 c 0.55,0 1,0.448 1,1 v 13.07 c 0,0.552 -0.45,1 -1,1 h -18 c -0.55,0 -1,-0.448 -1,-1 v -13.07 c 0,-0.552 0.45,-1 1,-1 z"
         stroke="#000000"
         stroke-width="3"
         fill="#e3fae3"
         id="path24924" />
      <path
         d="m 1100.72,521.693 c 0.55,0 1,0.448 1,1 v 66.1 c 0,0.552 -0.45,1 -1,1 h -18 c -0.55,0 -1,-0.448 -1,-1 v -66.1 c 0,-0.552 0.45,-1 1,-1 z m 20,0 c 0.55,0 1,0.448 1,1 v 64.12 c 0,0.552 -0.45,1 -1,1 h -18 c -0.55,0 -1,-0.448 -1,-1 v -64.13 c 0,-0.552 0.45,-1 1,-1 z"
         stroke="#000000"
         stroke-width="3"
         fill="#796464"
         id="path24926" />
      <path
         d="m 1160.66,521.693 c 0.55,0 1,0.448 1,1 v 53.3 c 0,0.552 -0.45,1 -1,1 h -18 c -0.55,0 -1,-0.448 -1,-1 v -53.3 c 0,-0.552 0.45,-1 1,-1 z"
         stroke="#000000"
         stroke-width="3"
         fill="#ffd9d9"
         id="path24928" />
      <path
         d="m 1031,495.373 c 0.55,0 1,0.448 1,1 v 24.32 c 0,0.552 -0.45,1 -1,1 h -18 c -0.55,0 -1,-0.448 -1,-1 v -24.32 c 0,-0.552 0.45,-1 1,-1 z"
         stroke="#000000"
         stroke-width="3"
         fill="#7d8e7d"
         id="path24930" />
      <path
         d="m 964.34,521.673 h 245.88"
         stroke="#000000"
         stroke-width="3"
         fill="none"
         id="path24932" />
      <path
         d="m 964.38,523.173 h -1.54 v -3 h 1.54 z m 247.34,0 h -1.54 v -3 h 1.54 z"
         stroke="#000000"
         stroke-width="0.05"
         id="path24934" />
      <path
         d="m 1011.87,604.993 v 18.46"
         stroke="#000000"
         stroke-width="2"
         fill="none"
         id="path24936" />
      <path
         d="m 1012.87,605.023 h -2 v -1.03 h 2 z"
         stroke="#000000"
         stroke-width="0.05"
         id="path24938" />
      <path
         d="m 1011.87,638.723 -4.63,-14.26 h 9.27 z"
         stroke="#000000"
         stroke-width="2"
         id="path24940" />
      <path
         d="m 1131.87,604.993 v 18.46"
         stroke="#000000"
         stroke-width="2"
         fill="none"
         id="path24942" />
      <path
         d="m 1132.87,605.023 h -2 v -1.03 h 2 z"
         stroke="#000000"
         stroke-width="0.05"
         id="path24944" />
      <path
         d="m 1131.87,638.723 -4.63,-14.26 h 9.27 z"
         stroke="#000000"
         stroke-width="2"
         id="path24946" />
      <path
         d="m 691.96,499.573 246.76,-0.08 m -246.69,0.08 h -2.57 m 249.2,-0.08 h 2.56"
         stroke="#1071e5"
         stroke-width="5"
         fill="none"
         id="path24948" />
      <path
         d="m 1180.66,521.693 c 0.55,0 1,0.448 1,1 v 46.14 c 0,0.552 -0.45,1 -1,1 h -18 c -0.55,0 -1,-0.448 -1,-1 v -46.13 c 0,-0.552 0.45,-1 1,-1 z"
         stroke="#000000"
         stroke-width="3"
         fill="#ffd9d9"
         id="path24950" />
      <path
         d="m 1064.84,549.673 h 5.78 m 7.7,0 h 11.57 m 7.7,0 h 11.56 m 7.7,0 h 11.57 m 7.7,0 h 11.56 m 7.7,0 h 11.56 m 7.7,0 h 11.57 m 7.7,0 h 5.8"
         stroke="#e81313"
         stroke-width="4"
         fill="none"
         id="path24952" />
      <path
         d="m 1064.9,551.673 h -2.06 v -4 h 2.05 z m 136.82,0 h -2.05 v -4 h 2.05 z"
         stroke="#e81313"
         stroke-width="0.05"
         fill="#e81313"
         id="path24954" />
      <path
         d="m 965.34,541.923 h 243.88"
         stroke="#1071e5"
         stroke-width="5"
         fill="none"
         id="path24956" />
      <path
         d="m 965.4,544.423 h -2.56 v -5 h 2.56 z m 246.32,0 h -2.56 v -5 h 2.56 z"
         stroke="#1071e5"
         stroke-width="0.05"
         fill="#1071e5"
         id="path24958" />
      <path
         d=""
         stroke="#000000"
         stroke-width="3"
         fill="none"
         id="path24960" />
      <path
         d=""
         stroke="#000000"
         stroke-width="0.05"
         fill="none"
         id="path24962" />
      <path
         d=""
         stroke="#000000"
         stroke-width="0.05"
         fill="none"
         id="path24964" />
      <path
         d="m 791.32,542.623 138.9,-0.08"
         stroke="#fcce14"
         stroke-width="2"
         fill="none"
         id="path24966" />
      <path
         d="m 791.34,543.623 h -1.02 v -2 h 1.02 z m 139.88,-0.08 h -1.02 v -2 h 1.02 z"
         stroke="#fcce14"
         stroke-width="0.05"
         fill="#fcce14"
         id="path24968" />
      <path
         d="m 1063.84,579.973 136.88,-0.08"
         stroke="#fcce14"
         stroke-width="2"
         fill="none"
         id="path24970" />
      <path
         d="m 1063.87,580.973 h -1.03 v -2 h 1.03 z m 137.85,-0.08 h -1.02 v -2 h 1.02 z"
         stroke="#fcce14"
         stroke-width="0.05"
         fill="#fcce14"
         id="path24972" />
      <path
         d="m 973.84,499.343 76.07,-0.07"
         stroke="#fcce14"
         stroke-width="2"
         fill="none"
         id="path24974" />
      <path
         d="m 973.87,500.343 h -1.03 v -2 h 1.03 z m 77.03,-0.07 h -1.02 v -2 h 1.03 z"
         stroke="#fcce14"
         stroke-width="0.05"
         fill="#fcce14"
         id="path24976" />
      <path
         d="m 976.84,531.823 c 0,1.1 -0.9,2 -2,2 -1.1,0 -2,-0.9 -2,-2 0,-1.12 0.9,-2 2,-2 1.1,0 2,0.88 2,2 z m 7.6,0 c 0,1.1 -0.9,2 -2,2 -1.1,0 -2,-0.9 -2,-2 0,-1.1 0.9,-2 2,-2 1.1,0 2,0.9 2,2 z m 7.6,0 c 0,1.1 -0.9,2 -2,2 -1.1,0 -2,-0.9 -2,-2 0,-1.1 0.9,-2 2,-2 1.1,0 2,0.9 2,2 z m 7.6,0 c 0,1.1 -0.9,2 -2,2 -1.1,0 -2,-0.9 -2,-2 0,-1.1 0.9,-2 2,-2 1.1,0 2,0.9 2,2 z m 7.6,0 c 0,1.1 -0.9,2 -2,2 -1.1,0 -2,-0.9 -2,-2 0,-1.1 0.9,-2 2,-2 1.1,0 2,0.9 2,2 z m 7.6,0 c 0,1.1 -0.9,2 -2,2 -1.1,0 -2,-0.9 -2,-2 0,-1.1 0.9,-2 2,-2 1.1,0 2,0.9 2,2 z m 7.6,0 c 0,1.1 -0.9,2 -2,2 -1.1,0 -2,-0.9 -2,-2 0,-1.1 0.9,-2 2,-2 1.1,0 2,0.9 2,2 z m 7.6,0 c 0,1.1 -0.9,2 -2,2 -1.1,0 -2,-0.9 -2,-2 0,-1.1 0.9,-2 2,-2 1.1,0 2,0.9 2,2 z m 7.6,0 c 0,1.1 -0.9,2 -2,2 -1.1,0 -2,-0.9 -2,-2 0,-1.1 0.9,-2 2,-2 1.1,0 2,0.9 2,2 z m 7.6,0 c 0,1.1 -0.9,2 -2,2 -1.1,0 -2,-0.9 -2,-2 0,-1.1 0.9,-2 2,-2 1.1,0 2,0.9 2,2 z"
         fill="#008a0e"
         id="path24978" />
      <path
         d="m 974.9,529.823 v 4 h -2.06 v -4 z m 77.94,0 v 4 h -2.05 v -4 z"
         stroke="#008a0e"
         stroke-width="0.05"
         fill="#008a0e"
         id="path24980" />
      <path
         d="m 702.22,457.523 h 78.3"
         stroke="#fcce14"
         stroke-width="2"
         fill="none"
         id="path24982" />
      <path
         d="m 702.25,456.523 v 2 h -1.03 v -2 z m 79.28,0 v 2 h -1.03 v -2 z"
         stroke="#fcce14"
         stroke-width="0.05"
         fill="#fcce14"
         id="path24984" />
      <path
         d="m 952.22,408.093 h 42.22"
         stroke="#fcce14"
         stroke-width="2"
         fill="none"
         id="path24986" />
      <path
         d="m 952.25,409.093 h -1.03 v -2 h 1.03 z m 43.19,0 h -1.02 v -2 h 1.02 z"
         stroke="#fcce14"
         stroke-width="0.05"
         fill="#fcce14"
         id="path24988" />
      <text
         font-family="'Cambria Math', 'Cambria Math_MSFontService', sans-serif"
         font-weight="400"
         font-size="27px"
         transform="translate(116.261,417)"
         id="text24990">𝒩</text>
      <text
         font-family="'Cambria Math', 'Cambria Math_MSFontService', sans-serif"
         font-weight="400"
         font-size="20px"
         transform="translate(136.834,422)"
         id="text24992">pos</text>
      <text
         font-family="'Cambria Math', 'Cambria Math_MSFontService', sans-serif"
         font-weight="400"
         font-size="20px"
         transform="translate(143.914,407)"
         id="text24994">𝒰</text>
      <text
         font-family="'Cambria Math', 'Cambria Math_MSFontService', sans-serif"
         font-weight="400"
         font-size="27px"
         transform="translate(240.865,417)"
         id="text24996">𝒩</text>
      <text
         font-family="'Cambria Math', 'Cambria Math_MSFontService', sans-serif"
         font-weight="400"
         font-size="20px"
         transform="translate(261.438,422)"
         id="text24998">neg</text>
      <text
         font-family="'Cambria Math', 'Cambria Math_MSFontService', sans-serif"
         font-weight="400"
         font-size="20px"
         transform="translate(268.518,407)"
         id="text25000">𝒰</text>
      <text
         font-family="'Cambria Math', 'Cambria Math_MSFontService', sans-serif"
         font-weight="400"
         font-size="27px"
         transform="translate(431.852,417)"
         id="text25002">𝒩</text>
      <text
         font-family="'Cambria Math', 'Cambria Math_MSFontService', sans-serif"
         font-weight="400"
         font-size="20px"
         transform="translate(452.425,422)"
         id="text25004">pos</text>
      <text
         font-family="'Cambria Math', 'Cambria Math_MSFontService', sans-serif"
         font-weight="400"
         font-size="20px"
         transform="translate(459.505,407)"
         id="text25006">𝒰</text>
      <text
         font-family="'Cambria Math', 'Cambria Math_MSFontService', sans-serif"
         font-weight="400"
         font-size="27px"
         transform="translate(529.49,417)"
         id="text25008">𝒩</text>
      <text
         font-family="'Cambria Math', 'Cambria Math_MSFontService', sans-serif"
         font-weight="400"
         font-size="20px"
         transform="translate(550.063,422)"
         id="text25010">neg</text>
      <text
         font-family="'Cambria Math', 'Cambria Math_MSFontService', sans-serif"
         font-weight="400"
         font-size="20px"
         transform="translate(557.143,407)"
         id="text25012">𝒰</text>
      <text
         font-family="'Cambria Math', 'Cambria Math_MSFontService', sans-serif"
         font-weight="400"
         font-size="27px"
         transform="translate(714.674,417)"
         id="text25014">𝒩</text>
      <text
         font-family="'Cambria Math', 'Cambria Math_MSFontService', sans-serif"
         font-weight="400"
         font-size="20px"
         transform="translate(735.247,422)"
         id="text25016">pos</text>
      <text
         font-family="'Cambria Math', 'Cambria Math_MSFontService', sans-serif"
         font-weight="400"
         font-size="20px"
         transform="translate(742.327,407)"
         id="text25018">𝒰</text>
      <text
         font-family="'Cambria Math', 'Cambria Math_MSFontService', sans-serif"
         font-weight="400"
         font-size="27px"
         transform="translate(831.647,417)"
         id="text25020">𝒩</text>
      <text
         font-family="'Cambria Math', 'Cambria Math_MSFontService', sans-serif"
         font-weight="400"
         font-size="20px"
         transform="translate(852.221,422)"
         id="text25022">neg</text>
      <text
         font-family="'Cambria Math', 'Cambria Math_MSFontService', sans-serif"
         font-weight="400"
         font-size="20px"
         transform="translate(859.301,407)"
         id="text25024">𝒰</text>
      <text
         font-family="'Cambria Math', 'Cambria Math_MSFontService', sans-serif"
         font-weight="400"
         font-size="27px"
         transform="translate(982.995,471)"
         id="text25026">𝒩</text>
      <text
         font-family="'Cambria Math', 'Cambria Math_MSFontService', sans-serif"
         font-weight="400"
         font-size="20px"
         transform="translate(1003.57,476)"
         id="text25028">pos</text>
      <text
         font-family="'Cambria Math', 'Cambria Math_MSFontService', sans-serif"
         font-weight="400"
         font-size="20px"
         transform="translate(1010.65,461)"
         id="text25030">𝒰</text>
      <text
         font-family="'Cambria Math', 'Cambria Math_MSFontService', sans-serif"
         font-weight="400"
         font-size="16px"
         transform="translate(1025.99,454)"
         id="text25032">′</text>
      <text
         font-family="'Cambria Math', 'Cambria Math_MSFontService', sans-serif"
         font-weight="400"
         font-size="27px"
         transform="translate(1104.28,469)"
         id="text25034">𝒩</text>
      <text
         font-family="'Cambria Math', 'Cambria Math_MSFontService', sans-serif"
         font-weight="400"
         font-size="20px"
         transform="translate(1124.86,474)"
         id="text25036">neg</text>
      <text
         font-family="'Cambria Math', 'Cambria Math_MSFontService', sans-serif"
         font-weight="400"
         font-size="20px"
         transform="translate(1131.94,459)"
         id="text25038">𝒰</text>
      <text
         font-family="'Cambria Math', 'Cambria Math_MSFontService', sans-serif"
         font-weight="400"
         font-size="16px"
         transform="translate(1147.28,452)"
         id="text25040">′</text>
      <path
         d="m 794.44,514.163 h 5.74 m 7.65,0 h 11.47 m 7.64,0 h 11.47 m 7.66,0 h 11.47 m 7.64,0 h 11.47 m 7.65,0 h 11.46 m 7.65,0 h 11.48 m 7.64,0 h 5.74"
         stroke="#e81313"
         stroke-width="4"
         fill="none"
         id="path24882" />
    </g>
    <g
       id="g25358">
      <text
         font-family="'Cambria Math', 'Cambria Math_MSFontService', sans-serif"
         font-weight="400"
         font-size="6.35px"
         id="text25247"
         x="174.83801"
         y="182.78601"
         style="stroke-width:0.264583">𝑡</text>
      <text
         font-family="'Cambria Math', 'Cambria Math_MSFontService', sans-serif"
         font-weight="400"
         font-size="4.7625px"
         id="text25249"
         x="177.70874"
         y="180.40475"
         style="stroke-width:0.264583">𝒰</text>
    </g>
    <g
       id="g25354">
      <text
         font-family="'Cambria Math', 'Cambria Math_MSFontService', sans-serif"
         font-weight="400"
         font-size="6.35px"
         id="text25251"
         x="205.16191"
         y="182.78601"
         style="stroke-width:0.264583">𝑡</text>
      <text
         font-family="'Cambria Math', 'Cambria Math_MSFontService', sans-serif"
         font-weight="400"
         font-size="4.7625px"
         id="text25253"
         x="208.03264"
         y="180.40475"
         style="stroke-width:0.264583">𝒰</text>
      <text
         font-family="'Cambria Math', 'Cambria Math_MSFontService', sans-serif"
         font-weight="400"
         font-size="6.35px"
         id="text25255"
         x="213.37721"
         y="182.78601"
         style="stroke-width:0.264583">+</text>
      <text
         font-family="'Cambria Math', 'Cambria Math_MSFontService', sans-serif"
         font-weight="400"
         font-size="6.35px"
         id="text25257"
         x="219.54996"
         y="182.78601"
         style="stroke-width:0.264583">𝑏</text>
      <text
         font-family="'Cambria Math', 'Cambria Math_MSFontService', sans-serif"
         font-weight="400"
         font-size="4.7625px"
         id="text25259"
         x="222.78845"
         y="184.10893"
         style="stroke-width:0.264583">pos</text>
      <text
         font-family="'Cambria Math', 'Cambria Math_MSFontService', sans-serif"
         font-weight="400"
         font-size="4.7625px"
         id="text25261"
         x="223.19061"
         y="180.40475"
         style="stroke-width:0.264583">𝒰</text>
    </g>
    <g
       id="g25346">
      <text
         font-family="'Cambria Math', 'Cambria Math_MSFontService', sans-serif"
         font-weight="400"
         font-size="6.35px"
         id="text25263"
         x="205.16191"
         y="193.89851"
         style="stroke-width:0.264583">𝑡</text>
      <text
         font-family="'Cambria Math', 'Cambria Math_MSFontService', sans-serif"
         font-weight="400"
         font-size="4.7625px"
         id="text25265"
         x="208.03264"
         y="191.78185"
         style="stroke-width:0.264583">𝒰</text>
      <text
         font-family="'Cambria Math', 'Cambria Math_MSFontService', sans-serif"
         font-weight="400"
         font-size="6.35px"
         id="text25267"
         x="213.37721"
         y="193.89851"
         style="stroke-width:0.264583">−</text>
      <text
         font-family="'Cambria Math', 'Cambria Math_MSFontService', sans-serif"
         font-weight="400"
         font-size="6.35px"
         id="text25269"
         x="219.54996"
         y="193.89851"
         style="stroke-width:0.264583">𝑏</text>
      <text
         font-family="'Cambria Math', 'Cambria Math_MSFontService', sans-serif"
         font-weight="400"
         font-size="4.7625px"
         id="text25271"
         x="222.78845"
         y="195.22144"
         style="stroke-width:0.264583">neg</text>
      <text
         font-family="'Cambria Math', 'Cambria Math_MSFontService', sans-serif"
         font-weight="400"
         font-size="4.7625px"
         id="text25273"
         x="223.19061"
         y="191.78185"
         style="stroke-width:0.264583">𝒰</text>
    </g>
    <g
       id="g25338"
       transform="translate(0.27512512,0.28907119)">
      <text
         font-family="'Cambria Math', 'Cambria Math_MSFontService', sans-serif"
         font-weight="400"
         font-size="6.35px"
         id="text25275"
         x="174.85124"
         y="193.63393"
         style="stroke-width:0.264583">𝑚</text>
      <text
         font-family="'Cambria Math', 'Cambria Math_MSFontService', sans-serif"
         font-weight="400"
         font-size="4.7625px"
         id="text25277"
         x="180.29637"
         y="191.51727"
         style="stroke-width:0.264583">𝒰</text>
    </g>
  </g>
</svg>
